<svg width="10" height="14" viewBox="0 0 10 14" fill="none" xmlns="http://www.w3.org/2000/svg">
<path fill-rule="evenodd" clip-rule="evenodd" d="M5.83333 0.333328V3.87499C5.83333 4.21874 6.11458 4.49999 6.45833 4.49999H10V13.0417C10 13.388 9.72135 13.6667 9.375 13.6667H0.625C0.278646 13.6667 0 13.388 0 13.0417V0.958328C0 0.611974 0.278646 0.333328 0.625 0.333328H5.83333ZM10 3.66666V3.50781C10 3.34374 9.9349 3.18489 9.81771 3.0677L7.26823 0.51562C7.15104 0.398432 6.99219 0.333328 6.82552 0.333328H6.66667V3.66666H10ZM3.2628 7.05412C3.34414 7.08906 3.4177 7.13985 3.4792 7.20352L4.3412 8.06552L6.53653 5.87019C6.59803 5.80651 6.67159 5.75572 6.75293 5.72078C6.83427 5.68585 6.92175 5.66745 7.01027 5.66669C7.09879 5.66592 7.18657 5.68278 7.2685 5.71631C7.35043 5.74983 7.42487 5.79933 7.48746 5.86192C7.55006 5.92452 7.59956 5.99895 7.63308 6.08088C7.6666 6.16281 7.68347 6.2506 7.6827 6.33912C7.68193 6.42764 7.66354 6.51512 7.6286 6.59646C7.59366 6.67779 7.54287 6.75135 7.4792 6.81285L4.81253 9.47952C4.68751 9.6045 4.51798 9.67471 4.3412 9.67471C4.16442 9.67471 3.99489 9.6045 3.86987 9.47952L2.53653 8.14619C2.47286 8.08469 2.42207 8.01113 2.38713 7.92979C2.35219 7.84845 2.3338 7.76097 2.33303 7.67245C2.33226 7.58393 2.34913 7.49615 2.38265 7.41422C2.41617 7.33229 2.46568 7.25785 2.52827 7.19526C2.59087 7.13266 2.6653 7.08316 2.74723 7.04964C2.82916 7.01612 2.91695 6.99925 3.00547 7.00002C3.09399 7.00079 3.18147 7.01918 3.2628 7.05412Z" fill="#0086FF"/>
</svg>
