<svg width="10" height="8" viewBox="0 0 10 8" fill="none" xmlns="http://www.w3.org/2000/svg">
<path d="M7.4375 7.50001H5.0625C4.75187 7.50001 4.5 7.24813 4.5 6.93751V1.5H3V3.9375C3 4.24813 2.74813 4.5 2.4375 4.5H0.485938C0.223906 4.5 0 4.27657 0 4C0 3.72344 0.223906 3.51407 0.485938 3.51407H2V1.07656C2 0.765938 2.25187 0.514063 2.5625 0.514063H4.9375C5.24813 0.514063 5.5 0.765938 5.5 1.07656V6.51407H7V4.07657C7 3.76594 7.25187 3.51407 7.5625 3.51407H9.5C9.77656 3.5 10 3.72344 10 4C10 4.27657 9.77609 4.5 9.51406 4.5H8V6.93751C8 7.24845 7.74844 7.50001 7.4375 7.50001Z" fill="#0086FF"/>
</svg>
