<svg width="14" height="18" viewBox="0 0 14 18" fill="none" xmlns="http://www.w3.org/2000/svg">
<path d="M0.844 6.37839L2.20962 5.95085L3.57527 6.37839L3.59066 4.94751L4.41927 3.78082L3.06314 3.32401L2.20962 2.17545L1.35612 3.32401L0 3.78082L0.828611 4.94751L0.844 6.37839Z" fill="#1B364A"/>
<path d="M6.95965 0.5383L6.10612 1.68686L4.75 2.14368L5.57864 3.31036L5.59403 4.74125L6.95965 4.31371L8.32529 4.74125L8.34066 3.31033L9.16927 2.14368L7.81314 1.68686L6.95965 0.5383Z" fill="#1B364A"/>
<path d="M11.7907 2.17545L10.9372 3.32401L9.58105 3.78082L10.4097 4.94748L10.4251 6.37839L11.7907 5.95085L13.1563 6.37839L13.1717 4.94751L14.0003 3.78082L12.6442 3.32401L11.7907 2.17545Z" fill="#1B364A"/>
<path d="M11.667 8.71172H9.33366V7.54505C9.33366 6.89755 8.8145 6.37839 8.167 6.37839H5.83366C5.18616 6.37839 4.66699 6.89755 4.66699 7.54505V8.71172H2.33366C1.68616 8.71172 1.17283 9.23089 1.17283 9.87839L1.16699 16.2951C1.16699 16.9426 1.68616 17.4617 2.33366 17.4617H11.667C12.3145 17.4617 12.8337 16.9426 12.8337 16.2951V9.87839C12.8337 9.23089 12.3145 8.71172 11.667 8.71172ZM8.167 8.71172H5.83366V7.54505H8.167V8.71172Z" fill="#1B364A"/>
</svg>
