<svg width="14" height="10" viewBox="0 0 14 10" fill="none" xmlns="http://www.w3.org/2000/svg">
<path d="M10.6414 1.17647C10.8211 1.17647 10.9668 1.32216 10.9668 1.50187L10.9668 3.45429C10.9668 3.634 10.8211 3.77969 10.6414 3.77969L2.50633 3.77969C2.32661 3.77969 2.18093 3.634 2.18093 3.45429L2.18093 1.50187C2.18093 1.32216 2.32661 1.17647 2.50633 1.17647L10.6414 1.17647Z" fill="white"/>
<path fill-rule="evenodd" clip-rule="evenodd" d="M11.292 1.50186L11.292 3.45428C11.292 3.81371 11.0006 4.10509 10.6412 4.10509L2.50612 4.10508C2.14669 4.10508 1.85531 3.81371 1.85531 3.45428L1.85531 1.50186C1.85531 1.14243 2.14669 0.851059 2.50612 0.851059L10.6412 0.851059C11.0006 0.851059 11.292 1.14243 11.292 1.50186ZM10.9666 1.50186C10.9666 1.32215 10.8209 1.17646 10.6412 1.17646L2.50612 1.17646C2.32641 1.17646 2.18072 1.32215 2.18072 1.50186L2.18072 3.45428C2.18072 3.63399 2.3264 3.77968 2.50612 3.77968L10.6412 3.77968C10.8209 3.77968 10.9666 3.63399 10.9666 3.45428L10.9666 1.50186Z" fill="#023E84"/>
<path fill-rule="evenodd" clip-rule="evenodd" d="M2.47656 1.33917C2.47656 1.24931 2.54941 1.17647 2.63926 1.17647H10.6007C10.6905 1.17647 10.7634 1.24931 10.7634 1.33917C10.7634 1.42903 10.6905 1.50187 10.6007 1.50187H2.63926C2.54941 1.50187 2.47656 1.42903 2.47656 1.33917Z" fill="white"/>
<path fill-rule="evenodd" clip-rule="evenodd" d="M2.41504 2.28486C2.41504 2.19501 2.48788 2.12216 2.57774 2.12216H10.5391C10.629 2.12216 10.7019 2.19501 10.7019 2.28486C10.7019 2.37472 10.629 2.44756 10.5391 2.44756H2.57774C2.48788 2.44756 2.41504 2.37472 2.41504 2.28486Z" fill="#034492"/>
<path fill-rule="evenodd" clip-rule="evenodd" d="M2.41504 1.6849C2.41504 1.59505 2.48788 1.5222 2.57774 1.5222H10.5391C10.629 1.5222 10.7019 1.59505 10.7019 1.6849C10.7019 1.77476 10.629 1.8476 10.5391 1.8476H2.57774C2.48788 1.8476 2.41504 1.77476 2.41504 1.6849Z" fill="#034492"/>
<path fill-rule="evenodd" clip-rule="evenodd" d="M2.41504 2.87466C2.41504 2.7848 2.48788 2.71196 2.57774 2.71196H10.5391C10.629 2.71196 10.7019 2.7848 10.7019 2.87466C10.7019 2.96452 10.629 3.03736 10.5391 3.03736H2.57774C2.48788 3.03736 2.41504 2.96452 2.41504 2.87466Z" fill="#034492"/>
<path fill-rule="evenodd" clip-rule="evenodd" d="M2.47656 3.41362C2.47656 3.32376 2.54941 3.25092 2.63926 3.25092H10.6007C10.6905 3.25092 10.7634 3.32376 10.7634 3.41362C10.7634 3.50347 10.6905 3.57632 10.6007 3.57632H2.63926C2.54941 3.57632 2.47656 3.50347 2.47656 3.41362Z" fill="#034492"/>
<path d="M2.68517 1.3043C2.55809 1.17722 2.35206 1.17722 2.22498 1.3043L0.844418 2.68486C0.71734 2.81194 0.71734 3.01798 0.844418 3.14505L6.3946 8.69523C6.52168 8.82231 6.72771 8.82231 6.85479 8.69523L8.23535 7.31467C8.36243 7.18759 8.36243 6.98155 8.23535 6.85448L2.68517 1.3043Z" fill="white"/>
<path fill-rule="evenodd" clip-rule="evenodd" d="M1.99489 1.07443L0.614324 2.455C0.360169 2.70915 0.360169 3.12122 0.614324 3.37538L6.1645 8.92556C6.41866 9.17971 6.83073 9.17971 7.08488 8.92556L8.46545 7.54499C8.7196 7.29084 8.7196 6.87877 8.46545 6.62461L2.91527 1.07443C2.66111 0.820276 2.24904 0.820276 1.99489 1.07443ZM2.22498 1.30453C2.35206 1.17745 2.55809 1.17745 2.68517 1.30453L8.23535 6.85471C8.36243 6.98179 8.36243 7.18782 8.23535 7.3149L6.85479 8.69546C6.72771 8.82254 6.52168 8.82254 6.3946 8.69546L0.844418 3.14528C0.717341 3.0182 0.717341 2.81217 0.844418 2.68509L2.22498 1.30453Z" fill="#023E84"/>
<path fill-rule="evenodd" clip-rule="evenodd" d="M0.886521 2.81033C0.95006 2.7468 1.05308 2.7468 1.11662 2.81033L3.23173 4.92545C3.29527 4.98899 3.29527 5.09201 3.23173 5.15555C3.16819 5.21908 3.06518 5.21908 3.00164 5.15555L0.886521 3.04043C0.822982 2.97689 0.822982 2.87387 0.886521 2.81033Z" fill="#3D96FF"/>
<path d="M10.4738 1.31064C10.6003 1.18057 10.8088 1.17914 10.9371 1.30746L12.3177 2.68798C12.4435 2.81383 12.4449 3.01743 12.3208 3.14499L6.92699 8.68885C6.80045 8.81891 6.59198 8.82034 6.46366 8.69203L5.08314 7.31151C4.95729 7.18566 4.9559 6.98206 5.08 6.8545L10.4738 1.31064Z" fill="#14A800"/>
<path fill-rule="evenodd" clip-rule="evenodd" d="M11.1672 1.07736L12.5477 2.45788C12.7994 2.70958 12.8022 3.11678 12.554 3.37191L7.16022 8.91577C6.90714 9.17589 6.4902 9.17875 6.23357 8.92213L4.85305 7.5416C4.60136 7.28991 4.59856 6.88271 4.84678 6.62758L10.2406 1.08372C10.4937 0.823598 10.9106 0.820737 11.1672 1.07736ZM10.9371 1.30746C10.8088 1.17914 10.6003 1.18057 10.4738 1.31063L5.08001 6.8545C4.9559 6.98206 4.9573 7.18566 5.08314 7.31151L6.46367 8.69203C6.59198 8.82035 6.80045 8.81892 6.92699 8.68885L12.3208 3.14499C12.4449 3.01743 12.4435 2.81383 12.3176 2.68798L10.9371 1.30746Z" fill="#244A1B"/>
<path fill-rule="evenodd" clip-rule="evenodd" d="M10.7362 1.44711C10.8 1.51036 10.8005 1.61337 10.7373 1.6772L7.41206 5.03291C7.34881 5.09674 7.2458 5.09721 7.18197 5.03397C7.11814 4.97072 7.11767 4.8677 7.18092 4.80387L10.5061 1.44816C10.5694 1.38433 10.6724 1.38386 10.7362 1.44711Z" fill="#70C217"/>
<path d="M11.3974 2.38014C11.3322 2.44528 11.2279 2.44657 11.1643 2.38301C11.1008 2.31945 11.1021 2.21512 11.1672 2.14997C11.2323 2.08482 11.3367 2.08354 11.4002 2.14709C11.4638 2.21065 11.4625 2.31499 11.3974 2.38014Z" fill="#244A1B"/>
<path d="M10.9023 2.78291C10.8212 2.86395 10.6914 2.86555 10.6124 2.78649C10.5333 2.70743 10.5349 2.57765 10.616 2.49661C10.697 2.41558 10.8268 2.41397 10.9058 2.49303C10.9849 2.57209 10.9833 2.70188 10.9023 2.78291Z" fill="#244A1B"/>
<path d="M11.4301 2.91026C11.3896 2.95077 11.3247 2.95158 11.2852 2.91205C11.2457 2.87252 11.2465 2.80762 11.287 2.76711C11.3275 2.72659 11.3924 2.72579 11.4319 2.76532C11.4715 2.80485 11.4707 2.86974 11.4301 2.91026Z" fill="#244A1B"/>
<path d="M10.2583 4.28478C10.2177 4.3253 10.1529 4.3261 10.1133 4.28657C10.0738 4.24704 10.0746 4.18215 10.1151 4.14163C10.1556 4.10111 10.2205 4.10031 10.2601 4.13984C10.2996 4.17937 10.2988 4.24427 10.2583 4.28478Z" fill="#244A1B"/>
<path d="M10.8462 3.35079C10.8056 3.39131 10.7407 3.39211 10.7012 3.35258C10.6617 3.31305 10.6625 3.24816 10.703 3.20764C10.7435 3.16712 10.8084 3.16632 10.8479 3.20585C10.8875 3.24538 10.8867 3.31027 10.8462 3.35079Z" fill="#244A1B"/>
<path d="M10.2563 4.84504C10.2158 4.88556 10.1509 4.88636 10.1114 4.84683C10.0718 4.8073 10.0726 4.74241 10.1132 4.70189C10.1537 4.66137 10.2186 4.66057 10.2581 4.7001C10.2976 4.73963 10.2968 4.80452 10.2563 4.84504Z" fill="#244A1B"/>
<path d="M10.4047 3.22712C10.3642 3.26764 10.2993 3.26844 10.2598 3.22891C10.2203 3.18938 10.2211 3.12449 10.2616 3.08397C10.3021 3.04345 10.367 3.04265 10.4065 3.08218C10.4461 3.12171 10.4453 3.1866 10.4047 3.22712Z" fill="#244A1B"/>
<path d="M10.7348 4.38633C10.6943 4.42685 10.6294 4.42765 10.5899 4.38812C10.5504 4.34859 10.5512 4.2837 10.5917 4.24318C10.6322 4.20266 10.6971 4.20186 10.7366 4.24139C10.7761 4.28092 10.7753 4.34581 10.7348 4.38633Z" fill="#244A1B"/>
<path d="M11.9213 2.65344C11.8808 2.69395 11.8159 2.69476 11.7764 2.65523C11.7369 2.6157 11.7377 2.5508 11.7782 2.51028C11.8187 2.46977 11.8836 2.46897 11.9231 2.5085C11.9627 2.54803 11.9619 2.61292 11.9213 2.65344Z" fill="#244A1B"/>
<path d="M11.3841 3.50355C11.3181 3.56949 11.2125 3.5708 11.1482 3.50646C11.0839 3.44213 11.0852 3.33652 11.1511 3.27058C11.2171 3.20464 11.3227 3.20334 11.387 3.26767C11.4513 3.332 11.45 3.43761 11.3841 3.50355Z" fill="#244A1B"/>
<path d="M12.013 3.10792C11.947 3.17386 11.8414 3.17517 11.7771 3.11083C11.7128 3.0465 11.7141 2.94089 11.78 2.87495C11.846 2.80901 11.9516 2.80771 12.0159 2.87204C12.0802 2.93637 12.0789 3.04198 12.013 3.10792Z" fill="#244A1B"/>
<path d="M10.7395 3.92326C10.6736 3.9892 10.568 3.99051 10.5037 3.92617C10.4393 3.86184 10.4406 3.75623 10.5066 3.69029C10.5725 3.62435 10.6781 3.62304 10.7425 3.68738C10.8068 3.75171 10.8055 3.85732 10.7395 3.92326Z" fill="#244A1B"/>
<path d="M11.1967 3.9949C11.1562 4.03541 11.0913 4.03621 11.0518 3.99668C11.0123 3.95716 11.0131 3.89226 11.0536 3.85175C11.0941 3.81123 11.159 3.81043 11.1985 3.84996C11.2381 3.88949 11.2373 3.95438 11.1967 3.9949Z" fill="#244A1B"/>
</svg>
