<svg width="16" height="15" viewBox="0 0 16 15" fill="none" xmlns="http://www.w3.org/2000/svg">
<path d="M10.5 3.08333H8.16667V1.91667C8.16667 1.26917 7.6475 0.75 7 0.75H4.66667C4.01917 0.75 3.5 1.26917 3.5 1.91667V3.08333H1.16667C0.519167 3.08333 0.00583333 3.6025 0.00583333 4.25L0 10.6667C0 11.3142 0.519167 11.8333 1.16667 11.8333H10.5C11.1475 11.8333 11.6667 11.3142 11.6667 10.6667V4.25C11.6667 3.6025 11.1475 3.08333 10.5 3.08333ZM7 3.08333H4.66667V1.91667H7V3.08333Z" fill="#1B364A"/>
<mask id="path-2-outside-1_0_1" maskUnits="userSpaceOnUse" x="8" y="6.25" width="8" height="8" fill="black">
<rect fill="white" x="8" y="6.25" width="8" height="8"/>
<path d="M14.1213 8.12867C13.5547 7.56205 12.8013 7.25 12 7.25C11.1987 7.25 10.4453 7.56205 9.87867 8.12867C9.31205 8.6953 9 9.44867 9 10.25C9 11.0513 9.31206 11.8047 9.87867 12.3713C10.4453 12.938 11.1987 13.25 12 13.25C12.8013 13.25 13.5547 12.938 14.1213 12.3713C14.688 11.8047 15 11.0513 15 10.25C15 9.44867 14.6879 8.69531 14.1213 8.12867V8.12867ZM12 10.0625C12.4652 10.0625 12.8438 10.441 12.8438 10.9062C12.8438 11.2915 12.5841 11.6171 12.2306 11.7177C12.2053 11.7249 12.1875 11.7478 12.1875 11.7742V11.9322C12.1875 12.0332 12.1099 12.12 12.0091 12.1248C11.9014 12.1299 11.8125 12.0441 11.8125 11.9375V11.7741C11.8125 11.7478 11.7949 11.7249 11.7695 11.7177C11.4176 11.6177 11.1586 11.2945 11.1563 10.9115C11.1556 10.8092 11.236 10.7218 11.3382 10.7188C11.4443 10.7158 11.5312 10.8009 11.5312 10.9062C11.5312 11.1758 11.76 11.393 12.0335 11.3738C12.2644 11.3577 12.4515 11.1706 12.4676 10.9397C12.4867 10.6662 12.2695 10.4375 12 10.4375C11.5348 10.4375 11.1562 10.059 11.1562 9.59375C11.1562 9.20847 11.4159 8.8829 11.7694 8.78231C11.7947 8.77508 11.8125 8.75224 11.8125 8.72584V8.5678C11.8125 8.46683 11.8901 8.37996 11.9909 8.37521C12.0986 8.37015 12.1875 8.45594 12.1875 8.5625V8.72587C12.1875 8.7522 12.2051 8.77505 12.2305 8.78226C12.5824 8.88234 12.8414 9.20546 12.8437 9.58851C12.8444 9.69076 12.764 9.77824 12.6618 9.78117C12.5557 9.78421 12.4688 9.69914 12.4688 9.59375C12.4688 9.3242 12.24 9.10705 11.9665 9.12617C11.7356 9.14231 11.5485 9.32936 11.5324 9.56027C11.5133 9.83382 11.7305 10.0625 12 10.0625V10.0625Z"/>
</mask>
<path d="M14.1213 8.12867C13.5547 7.56205 12.8013 7.25 12 7.25C11.1987 7.25 10.4453 7.56205 9.87867 8.12867C9.31205 8.6953 9 9.44867 9 10.25C9 11.0513 9.31206 11.8047 9.87867 12.3713C10.4453 12.938 11.1987 13.25 12 13.25C12.8013 13.25 13.5547 12.938 14.1213 12.3713C14.688 11.8047 15 11.0513 15 10.25C15 9.44867 14.6879 8.69531 14.1213 8.12867V8.12867ZM12 10.0625C12.4652 10.0625 12.8438 10.441 12.8438 10.9062C12.8438 11.2915 12.5841 11.6171 12.2306 11.7177C12.2053 11.7249 12.1875 11.7478 12.1875 11.7742V11.9322C12.1875 12.0332 12.1099 12.12 12.0091 12.1248C11.9014 12.1299 11.8125 12.0441 11.8125 11.9375V11.7741C11.8125 11.7478 11.7949 11.7249 11.7695 11.7177C11.4176 11.6177 11.1586 11.2945 11.1563 10.9115C11.1556 10.8092 11.236 10.7218 11.3382 10.7188C11.4443 10.7158 11.5312 10.8009 11.5312 10.9062C11.5312 11.1758 11.76 11.393 12.0335 11.3738C12.2644 11.3577 12.4515 11.1706 12.4676 10.9397C12.4867 10.6662 12.2695 10.4375 12 10.4375C11.5348 10.4375 11.1562 10.059 11.1562 9.59375C11.1562 9.20847 11.4159 8.8829 11.7694 8.78231C11.7947 8.77508 11.8125 8.75224 11.8125 8.72584V8.5678C11.8125 8.46683 11.8901 8.37996 11.9909 8.37521C12.0986 8.37015 12.1875 8.45594 12.1875 8.5625V8.72587C12.1875 8.7522 12.2051 8.77505 12.2305 8.78226C12.5824 8.88234 12.8414 9.20546 12.8437 9.58851C12.8444 9.69076 12.764 9.77824 12.6618 9.78117C12.5557 9.78421 12.4688 9.69914 12.4688 9.59375C12.4688 9.3242 12.24 9.10705 11.9665 9.12617C11.7356 9.14231 11.5485 9.32936 11.5324 9.56027C11.5133 9.83382 11.7305 10.0625 12 10.0625V10.0625Z" fill="#1B364A"/>
<path d="M12.2306 11.7177L11.9569 10.7559L11.9568 10.7559L12.2306 11.7177ZM12.0091 12.1248L12.056 13.1237L12.0561 13.1237L12.0091 12.1248ZM11.7695 11.7177L12.0432 10.7559L12.043 10.7559L11.7695 11.7177ZM11.1563 10.9115L10.1563 10.9176L10.1563 10.9176L11.1563 10.9115ZM11.3382 10.7188L11.3669 11.7184L11.367 11.7184L11.3382 10.7188ZM12.0335 11.3738L11.9638 10.3763L11.9638 10.3763L12.0335 11.3738ZM12.4676 10.9397L13.4651 11.0094L13.4651 11.0094L12.4676 10.9397ZM11.7694 8.78231L12.0431 9.74411L12.0432 9.74408L11.7694 8.78231ZM11.9909 8.37521L11.944 7.37631L11.9439 7.37632L11.9909 8.37521ZM12.2305 8.78226L11.9568 9.74407L11.957 9.74413L12.2305 8.78226ZM12.8437 9.58851L13.8437 9.58244L13.8437 9.58239L12.8437 9.58851ZM12.6618 9.78117L12.6331 8.78158L12.633 8.78158L12.6618 9.78117ZM11.9665 9.12617L12.0362 10.1237L12.0362 10.1237L11.9665 9.12617ZM11.5324 9.56027L10.5349 9.49061L10.5349 9.49061L11.5324 9.56027ZM14.8284 7.42157C14.0743 6.6674 13.0665 6.25 12 6.25V8.25C12.5361 8.25 13.0351 8.4567 13.4142 8.83578L14.8284 7.42157ZM12 6.25C10.9335 6.25 9.92573 6.6674 9.17157 7.42157L10.5858 8.83578C10.9649 8.4567 11.4639 8.25 12 8.25V6.25ZM9.17157 7.42157C8.4174 8.17573 8 9.18346 8 10.25H10C10 9.71388 10.2067 9.21486 10.5858 8.83578L9.17157 7.42157ZM8 10.25C8 11.3165 8.41742 12.3243 9.17155 13.0784L10.5858 11.6642C10.2067 11.2851 10 10.7861 10 10.25H8ZM9.17155 13.0784C9.92572 13.8326 10.9335 14.25 12 14.25V12.25C11.4639 12.25 10.9648 12.0433 10.5858 11.6642L9.17155 13.0784ZM12 14.25C13.0665 14.25 14.0743 13.8326 14.8284 13.0784L13.4142 11.6642C13.0351 12.0433 12.5361 12.25 12 12.25V14.25ZM14.8284 13.0784C15.5826 12.3243 16 11.3165 16 10.25H14C14 10.7861 13.7933 11.2851 13.4142 11.6642L14.8284 13.0784ZM16 10.25C16 9.18345 15.5826 8.17574 14.8284 7.42158L13.4142 8.83576C13.7933 9.21487 14 9.71389 14 10.25H16ZM12 11.0625C11.913 11.0625 11.8438 10.9933 11.8438 10.9062H13.8438C13.8438 9.88872 13.0175 9.0625 12 9.0625V11.0625ZM11.8438 10.9062C11.8438 10.8315 11.8933 10.774 11.9569 10.7559L12.5044 12.6795C13.2749 12.4602 13.8438 11.7515 13.8438 10.9062H11.8438ZM11.9568 10.7559C11.5148 10.8818 11.1875 11.2874 11.1875 11.7742H13.1875C13.1875 12.2081 12.8957 12.5681 12.5045 12.6795L11.9568 10.7559ZM11.1875 11.7742V11.9322H13.1875V11.7742H11.1875ZM11.1875 11.9322C11.1875 11.5368 11.4927 11.148 11.9621 11.1259L12.0561 13.1237C12.7271 13.0921 13.1875 12.5296 13.1875 11.9322H11.1875ZM11.9621 11.1259C12.4272 11.104 12.8125 11.476 12.8125 11.9375H10.8125C10.8125 12.6121 11.3756 13.1557 12.056 13.1237L11.9621 11.1259ZM12.8125 11.9375V11.7741H10.8125V11.9375H12.8125ZM12.8125 11.7741C12.8125 11.2905 12.4882 10.8826 12.0432 10.7559L11.4958 12.6795C11.1015 12.5673 10.8125 12.2051 10.8125 11.7741H12.8125ZM12.043 10.7559C12.1064 10.7739 12.1558 10.831 12.1562 10.9054L10.1563 10.9176C10.1614 11.7581 10.7288 12.4614 11.496 12.6796L12.043 10.7559ZM12.1562 10.9054C12.1587 11.3178 11.8364 11.705 11.3669 11.7184L11.3096 9.71924C10.6357 9.73856 10.1525 10.3007 10.1563 10.9176L12.1562 10.9054ZM11.367 11.7184C10.9081 11.7316 10.5312 11.3627 10.5312 10.9062H12.5312C12.5312 10.239 11.9806 9.69997 11.3095 9.71924L11.367 11.7184ZM10.5312 10.9062C10.5312 11.7511 11.247 12.4313 12.1033 12.3714L11.9638 10.3763C12.2729 10.3546 12.5312 10.6005 12.5312 10.9062H10.5312ZM12.1032 12.3714C12.8315 12.3205 13.4143 11.7376 13.4651 11.0094L11.47 10.8701C11.4886 10.6036 11.6973 10.3949 11.9638 10.3763L12.1032 12.3714ZM13.4651 11.0094C13.5249 10.1532 12.8449 9.4375 12 9.4375V11.4375C11.6942 11.4375 11.4484 11.1792 11.47 10.8701L13.4651 11.0094ZM12 9.4375C12.087 9.4375 12.1562 9.50671 12.1562 9.59375H10.1562C10.1562 10.6113 10.9825 11.4375 12 11.4375V9.4375ZM12.1562 9.59375C12.1562 9.66846 12.1067 9.72602 12.0431 9.74411L11.4956 7.8205C10.7251 8.03979 10.1562 8.74848 10.1562 9.59375H12.1562ZM12.0432 9.74408C12.4852 9.61824 12.8125 9.21259 12.8125 8.72584H10.8125C10.8125 8.29189 11.1043 7.93192 11.4955 7.82053L12.0432 9.74408ZM12.8125 8.72584V8.5678H10.8125V8.72584H12.8125ZM12.8125 8.5678C12.8125 8.96321 12.5073 9.35202 12.0379 9.37411L11.9439 7.37632C11.2729 7.4079 10.8125 7.97045 10.8125 8.5678H12.8125ZM12.0379 9.37411C11.5728 9.39597 11.1875 9.024 11.1875 8.5625H13.1875C13.1875 7.88788 12.6244 7.34433 11.944 7.37631L12.0379 9.37411ZM11.1875 8.5625V8.72587H13.1875V8.5625H11.1875ZM11.1875 8.72587C11.1875 9.2095 11.5117 9.61743 11.9568 9.74407L12.5042 7.82045C12.8986 7.93268 13.1875 8.29491 13.1875 8.72587H11.1875ZM11.957 9.74413C11.8936 9.72611 11.8442 9.66903 11.8438 9.59463L13.8437 9.58239C13.8386 8.74189 13.2712 8.03857 12.504 7.8204L11.957 9.74413ZM11.8438 9.59459C11.8413 9.18224 12.1636 8.79504 12.6331 8.78158L12.6904 10.7808C13.3643 10.7614 13.8475 10.1993 13.8437 9.58244L11.8438 9.59459ZM12.633 8.78158C13.0919 8.7684 13.4688 9.13727 13.4688 9.59375H11.4688C11.4688 10.261 12.0194 10.8 12.6905 10.7808L12.633 8.78158ZM13.4688 9.59375C13.4688 8.74885 12.753 8.06874 11.8967 8.12861L12.0362 10.1237C11.7271 10.1454 11.4688 9.89954 11.4688 9.59375H13.4688ZM11.8968 8.1286C11.1685 8.1795 10.5857 8.76235 10.5349 9.49061L12.53 9.62993C12.5114 9.89637 12.3027 10.1051 12.0362 10.1237L11.8968 8.1286ZM10.5349 9.49061C10.4751 10.3468 11.1551 11.0625 12 11.0625V9.0625C12.3058 9.0625 12.5516 9.32082 12.53 9.62993L10.5349 9.49061Z" fill="white" mask="url(#path-2-outside-1_0_1)"/>
</svg>
