<svg width="16" height="16" viewBox="0 0 16 16" fill="none" xmlns="http://www.w3.org/2000/svg">
<path d="M12.0389 6.47404C12.3351 6.47404 12.625 6.50067 12.9085 6.54731V5.76125C12.9085 4.86196 12.2064 4.13584 11.3433 4.13584H9.6934V3.0483C9.6934 2.24489 9.06123 1.59109 8.28439 1.59109H5.81484C5.038 1.59109 4.40583 2.24489 4.40583 3.0483V4.13584H2.75716C1.89398 4.13584 1.18555 4.86196 1.18555 5.76125V11.6367C1.18555 12.5294 1.89398 13.2621 2.75716 13.2621H6.95684C6.84739 12.8291 6.78936 12.3761 6.78936 11.9032C6.78936 8.91218 9.14678 6.47404 12.0389 6.47404ZM5.69407 3.0483C5.69407 2.97934 5.74817 2.9234 5.81484 2.9234H8.28439C8.35107 2.9234 8.40516 2.97934 8.40516 3.0483V4.13438H5.69407V3.0483Z" fill="#1B364A"/>
<path d="M12.0384 7.80634C9.85493 7.80634 8.07715 9.63825 8.07715 11.9032C8.07715 14.1681 9.85493 16 12.0384 16C14.2285 16 15.9999 14.1681 15.9999 11.9032C15.9999 9.63825 14.2285 7.80634 12.0384 7.80634ZM13.3847 13.4287C13.1433 13.6784 12.7323 13.6931 12.4764 13.4287L11.5876 12.5094C11.4652 12.3828 11.3943 12.2163 11.3943 12.0364V9.87139C11.3943 9.49835 11.6841 9.20524 12.0384 9.20524C12.3992 9.20524 12.6826 9.49835 12.6826 9.87139V11.7633L13.3847 12.4827C13.6358 12.7425 13.6358 13.1689 13.3847 13.4287Z" fill="#1B364A"/>
</svg>
