<svg width="9" height="12" viewBox="0 0 9 12" fill="none" xmlns="http://www.w3.org/2000/svg">
<path d="M3.96294 11.0884C0.935898 6.72559 0.374023 6.27783 0.374023 4.67444C0.374023 2.47813 2.16488 0.697693 4.37402 0.697693C6.58317 0.697693 8.37402 2.47813 8.37402 4.67444C8.37402 6.27783 7.81215 6.72559 4.78511 11.0884C4.58646 11.3737 4.16157 11.3737 3.96294 11.0884ZM4.37402 6.33141C5.2945 6.33141 6.04069 5.58956 6.04069 4.67444C6.04069 3.75931 5.2945 3.01746 4.37402 3.01746C3.45354 3.01746 2.70736 3.75931 2.70736 4.67444C2.70736 5.58956 3.45354 6.33141 4.37402 6.33141Z" fill="#444444"/>
</svg>
