<svg width="21" height="20" viewBox="0 0 21 20" fill="none" xmlns="http://www.w3.org/2000/svg">
<rect x="0.192383" width="20.1064" height="20" rx="10" fill="#0086FF"/>
<path d="M2.09468 13V7.18182H4.06059C4.51703 7.18182 4.89013 7.2642 5.17991 7.42898C5.47157 7.59186 5.68748 7.8125 5.82763 8.09091C5.96779 8.36932 6.03786 8.67992 6.03786 9.02273C6.03786 9.36553 5.96779 9.67708 5.82763 9.95739C5.68938 10.2377 5.47536 10.4612 5.18559 10.6278C4.89582 10.7926 4.5246 10.875 4.07195 10.875H2.66286V10.25H4.04923C4.36173 10.25 4.61267 10.196 4.80207 10.0881C4.99146 9.98011 5.12877 9.83428 5.214 9.65057C5.30112 9.46496 5.34468 9.25568 5.34468 9.02273C5.34468 8.78977 5.30112 8.58144 5.214 8.39773C5.12877 8.21402 4.99051 8.07008 4.79923 7.96591C4.60794 7.85985 4.35415 7.80682 4.03786 7.80682H2.79923V13H2.09468ZM8.05235 7.18182V13H7.3819V7.18182H8.05235ZM12.3303 11.2159V8.63636H13.0008V13H12.3303V12.2614H12.2849C12.1826 12.483 12.0235 12.6714 11.8076 12.8267C11.5917 12.9801 11.319 13.0568 10.9894 13.0568C10.7167 13.0568 10.4743 12.9972 10.2622 12.8778C10.05 12.7566 9.88336 12.5748 9.76215 12.3324C9.64094 12.0881 9.58033 11.7803 9.58033 11.4091V8.63636H10.2508V11.3636C10.2508 11.6818 10.3398 11.9356 10.5178 12.125C10.6978 12.3144 10.9269 12.4091 11.2053 12.4091C11.372 12.4091 11.5415 12.3665 11.7139 12.2812C11.8881 12.196 12.0339 12.0653 12.1514 11.8892C12.2707 11.7131 12.3303 11.4886 12.3303 11.2159ZM17.6197 9.61364L17.0174 9.78409C16.9795 9.68371 16.9237 9.58617 16.8498 9.49148C16.7778 9.39489 16.6793 9.31534 16.5543 9.25284C16.4293 9.19034 16.2693 9.15909 16.0742 9.15909C15.8072 9.15909 15.5846 9.22064 15.4066 9.34375C15.2305 9.46496 15.1424 9.61932 15.1424 9.80682C15.1424 9.97348 15.203 10.1051 15.3242 10.2017C15.4454 10.2983 15.6348 10.3788 15.8924 10.4432L16.5401 10.6023C16.9303 10.697 17.221 10.8419 17.4123 11.0369C17.6036 11.2301 17.6992 11.4792 17.6992 11.7841C17.6992 12.0341 17.6273 12.2576 17.4833 12.4545C17.3413 12.6515 17.1424 12.8068 16.8867 12.9205C16.631 13.0341 16.3337 13.0909 15.9947 13.0909C15.5496 13.0909 15.1812 12.9943 14.8896 12.8011C14.5979 12.608 14.4132 12.3258 14.3356 11.9545L14.972 11.7955C15.0326 12.0303 15.1471 12.2064 15.3157 12.3239C15.4862 12.4413 15.7087 12.5 15.9833 12.5C16.2958 12.5 16.5439 12.4337 16.7276 12.3011C16.9132 12.1667 17.006 12.0057 17.006 11.8182C17.006 11.6667 16.953 11.5398 16.847 11.4375C16.7409 11.3333 16.578 11.2557 16.3583 11.2045L15.631 11.0341C15.2314 10.9394 14.9379 10.7926 14.7504 10.5938C14.5648 10.393 14.472 10.142 14.472 9.84091C14.472 9.5947 14.5411 9.37689 14.6793 9.1875C14.8195 8.99811 15.0098 8.84943 15.2504 8.74148C15.4928 8.63352 15.7674 8.57955 16.0742 8.57955C16.506 8.57955 16.8451 8.67424 17.0913 8.86364C17.3394 9.05303 17.5155 9.30303 17.6197 9.61364Z" fill="white"/>
</svg>
