<svg width="9" height="9" viewBox="0 0 9 9" fill="none" xmlns="http://www.w3.org/2000/svg">
<path d="M4.80267 0C2.60755 0 0.820312 1.83192 0.820312 4.09685C0.820312 6.36175 2.60755 8.19367 4.80267 8.19367C7.00443 8.19367 8.78519 6.36175 8.78519 4.09685C8.78519 1.83192 7.00443 0 4.80267 0ZM6.1561 5.62233C5.91342 5.87206 5.50027 5.88677 5.24296 5.62233L4.34942 4.70304C4.22642 4.57646 4.15512 4.40993 4.15512 4.23005V2.06506C4.15512 1.69201 4.44649 1.3989 4.80267 1.3989C5.16534 1.3989 5.45022 1.69201 5.45022 2.06506V3.95695L6.1561 4.6764C6.40858 4.93621 6.40858 5.36252 6.1561 5.62233Z" fill="#444444"/>
</svg>
