<svg width="13" height="12" viewBox="0 0 13 12" fill="none" xmlns="http://www.w3.org/2000/svg">
<path fill-rule="evenodd" clip-rule="evenodd" d="M11.9127 4.94333L10.8349 5.99813L11.9127 7.05291C12.2338 7.35694 12.0843 7.89753 11.6627 7.99835L10.1944 8.37312L10.6083 9.82659C10.7252 10.2446 10.3311 10.6391 9.91311 10.522L8.46013 10.1079L8.0855 11.5768C7.98383 12.0023 7.43335 12.1429 7.14038 11.8268L6.08595 10.7487L5.03147 11.8268C4.73548 12.1397 4.19039 12.0121 4.08635 11.5768L3.71173 10.1079L2.25874 10.522C1.8408 10.639 1.44658 10.2447 1.56356 9.82659L1.97749 8.37312L0.509125 7.99835C0.087718 7.89757 -0.0620948 7.35706 0.259187 7.05291L1.33696 5.99813L0.259187 4.94333C-0.0619542 4.63932 0.0875539 4.09871 0.509149 3.9979L1.97751 3.62314L1.56358 2.16966C1.44663 1.75168 1.84071 1.3572 2.25876 1.47425L3.71177 1.88832L4.0864 0.419471C4.18666 -0.000106799 4.7355 -0.143474 5.03152 0.16944L6.08595 1.25556L7.1404 0.169416C7.43982 -0.147083 7.98638 0.00462761 8.08552 0.419447L8.46015 1.8883L9.91314 1.47423C10.3311 1.35723 10.7253 1.75156 10.6083 2.16964L10.1944 3.62312L11.6628 3.99788C12.0842 4.09866 12.234 4.63918 11.9127 4.94333ZM3.35581 6.28581L5.18394 8.1653C5.29377 8.27823 5.47185 8.27823 5.58169 8.16531L8.81606 4.84004C8.92589 4.72711 8.92589 4.54403 8.81606 4.43111L8.41833 4.02219C8.3085 3.90927 8.13041 3.90927 8.02058 4.02219L5.38281 6.73406L4.1513 5.46795C4.04147 5.35503 3.86338 5.35503 3.75355 5.46795L3.35581 5.87688C3.24598 5.98981 3.24598 6.17289 3.35581 6.28581Z" fill="#0086FF"/>
</svg>
