<svg width="12" height="11" viewBox="0 0 12 11" fill="none" xmlns="http://www.w3.org/2000/svg">
<path d="M8.31031 3.13207L11.32 3.57374C11.5692 3.60916 11.7786 3.78416 11.8582 4.02374C11.9378 4.26541 11.8729 4.52791 11.6928 4.70708L9.5104 6.83625L10.0256 9.89042C10.0675 10.1404 9.96489 10.3946 9.75545 10.5425C9.5481 10.6904 9.27373 10.7092 9.04963 10.5904L6.36041 9.16333L3.67328 10.5904C3.44708 10.7092 3.17271 10.6904 2.96537 10.5425C2.75802 10.3946 2.6533 10.1404 2.69728 9.89042L3.21251 6.83625L1.02971 4.70708C0.849382 4.52791 0.785293 4.26541 0.864462 4.02374C0.943421 3.78416 1.15223 3.60916 1.40335 3.57374L4.41051 3.13207L5.75931 0.37519C5.87031 0.14569 6.10489 0 6.36041 0C6.61802 0 6.85259 0.14569 6.9636 0.37519L8.31031 3.13207Z" fill="#F8D147"/>
</svg>
