<svg width="16" height="14" viewBox="0 0 16 14" fill="none" xmlns="http://www.w3.org/2000/svg">
<path d="M10.5 2.33333H8.16667V1.16667C8.16667 0.519167 7.6475 0 7 0H4.66667C4.01917 0 3.5 0.519167 3.5 1.16667V2.33333H1.16667C0.519167 2.33333 0.00583333 2.8525 0.00583333 3.5L0 9.91667C0 10.5642 0.519167 11.0833 1.16667 11.0833H10.5C11.1475 11.0833 11.6667 10.5642 11.6667 9.91667V3.5C11.6667 2.8525 11.1475 2.33333 10.5 2.33333ZM7 2.33333H4.66667V1.16667H7V2.33333Z" fill="#1B364A"/>
<path d="M11.668 12.3739L12 12.6687L12.332 12.3739L14.7865 10.1944L14.7918 10.1897L14.797 10.1848C15.1953 9.81037 15.5 9.30204 15.5 8.66667C15.5 7.48598 14.6125 6.5 13.3636 6.5C12.7899 6.5 12.3391 6.71657 11.9928 6.98023C11.6563 6.72954 11.2081 6.5 10.6364 6.5C9.3875 6.5 8.5 7.48598 8.5 8.66667C8.5 9.26877 8.751 9.82181 9.22287 10.2027L11.668 12.3739Z" fill="#1B364A" stroke="white"/>
</svg>
