<svg width="364" height="166" viewBox="0 0 364 166" fill="none" xmlns="http://www.w3.org/2000/svg">
<ellipse cx="361.159" cy="2.73414" rx="2.73374" ry="2.71547" transform="rotate(90 361.159 2.73414)" fill="#14A800"/>
<ellipse cx="361.159" cy="42.8287" rx="2.73374" ry="2.71547" transform="rotate(90 361.159 42.8287)" fill="#14A800"/>
<ellipse cx="361.159" cy="82.9235" rx="2.73374" ry="2.71547" transform="rotate(90 361.159 82.9235)" fill="#14A800"/>
<ellipse cx="361.159" cy="123.018" rx="2.73374" ry="2.71547" transform="rotate(90 361.159 123.018)" fill="#14A800"/>
<ellipse cx="361.159" cy="163.113" rx="2.73374" ry="2.71547" transform="rotate(90 361.159 163.113)" fill="#14A800"/>
<ellipse cx="321.331" cy="2.73377" rx="2.73374" ry="2.71547" transform="rotate(90 321.331 2.73377)" fill="#14A800"/>
<ellipse cx="321.331" cy="42.8286" rx="2.73374" ry="2.71547" transform="rotate(90 321.331 42.8286)" fill="#14A800"/>
<ellipse cx="321.331" cy="82.9235" rx="2.73374" ry="2.71547" transform="rotate(90 321.331 82.9235)" fill="#14A800"/>
<ellipse cx="321.331" cy="123.018" rx="2.73374" ry="2.71547" transform="rotate(90 321.331 123.018)" fill="#14A800"/>
<ellipse cx="321.331" cy="163.113" rx="2.73374" ry="2.71547" transform="rotate(90 321.331 163.113)" fill="#14A800"/>
<ellipse cx="281.505" cy="2.73377" rx="2.73374" ry="2.71547" transform="rotate(90 281.505 2.73377)" fill="#14A800"/>
<ellipse cx="281.505" cy="42.8286" rx="2.73374" ry="2.71547" transform="rotate(90 281.505 42.8286)" fill="#14A800"/>
<ellipse cx="281.505" cy="82.9235" rx="2.73374" ry="2.71547" transform="rotate(90 281.505 82.9235)" fill="#14A800"/>
<ellipse cx="281.505" cy="123.018" rx="2.73374" ry="2.71547" transform="rotate(90 281.505 123.018)" fill="#14A800"/>
<ellipse cx="281.505" cy="163.113" rx="2.73374" ry="2.71547" transform="rotate(90 281.505 163.113)" fill="#14A800"/>
<ellipse cx="241.678" cy="2.73377" rx="2.73374" ry="2.71547" transform="rotate(90 241.678 2.73377)" fill="#14A800"/>
<ellipse cx="241.678" cy="42.8287" rx="2.73374" ry="2.71547" transform="rotate(90 241.678 42.8287)" fill="#14A800"/>
<ellipse cx="241.678" cy="82.9235" rx="2.73374" ry="2.71547" transform="rotate(90 241.678 82.9235)" fill="#14A800"/>
<ellipse cx="241.678" cy="123.018" rx="2.73374" ry="2.71547" transform="rotate(90 241.678 123.018)" fill="#14A800"/>
<ellipse cx="241.678" cy="163.113" rx="2.73374" ry="2.71547" transform="rotate(90 241.678 163.113)" fill="#14A800"/>
<ellipse cx="201.851" cy="2.73377" rx="2.73374" ry="2.71547" transform="rotate(90 201.851 2.73377)" fill="#14A800"/>
<ellipse cx="201.851" cy="42.8286" rx="2.73374" ry="2.71547" transform="rotate(90 201.851 42.8286)" fill="#14A800"/>
<ellipse cx="201.851" cy="82.9235" rx="2.73374" ry="2.71547" transform="rotate(90 201.851 82.9235)" fill="#14A800"/>
<ellipse cx="201.851" cy="123.018" rx="2.73374" ry="2.71547" transform="rotate(90 201.851 123.018)" fill="#14A800"/>
<ellipse cx="201.851" cy="163.113" rx="2.73374" ry="2.71547" transform="rotate(90 201.851 163.113)" fill="#14A800"/>
<ellipse cx="162.024" cy="2.73377" rx="2.73374" ry="2.71547" transform="rotate(90 162.024 2.73377)" fill="#14A800"/>
<ellipse cx="162.024" cy="42.8286" rx="2.73374" ry="2.71547" transform="rotate(90 162.024 42.8286)" fill="#14A800"/>
<ellipse cx="162.024" cy="82.9235" rx="2.73374" ry="2.71547" transform="rotate(90 162.024 82.9235)" fill="#14A800"/>
<ellipse cx="162.024" cy="123.018" rx="2.73374" ry="2.71547" transform="rotate(90 162.024 123.018)" fill="#14A800"/>
<ellipse cx="162.024" cy="163.113" rx="2.73374" ry="2.71547" transform="rotate(90 162.024 163.113)" fill="#14A800"/>
<ellipse cx="122.197" cy="2.73377" rx="2.73374" ry="2.71547" transform="rotate(90 122.197 2.73377)" fill="#14A800"/>
<ellipse cx="122.197" cy="42.8287" rx="2.73374" ry="2.71547" transform="rotate(90 122.197 42.8287)" fill="#14A800"/>
<ellipse cx="122.197" cy="82.9235" rx="2.73374" ry="2.71547" transform="rotate(90 122.197 82.9235)" fill="#14A800"/>
<ellipse cx="122.197" cy="123.018" rx="2.73374" ry="2.71547" transform="rotate(90 122.197 123.018)" fill="#14A800"/>
<ellipse cx="122.197" cy="163.113" rx="2.73374" ry="2.71547" transform="rotate(90 122.197 163.113)" fill="#14A800"/>
<ellipse cx="82.3705" cy="2.73377" rx="2.73374" ry="2.71547" transform="rotate(90 82.3705 2.73377)" fill="#14A800"/>
<ellipse cx="82.3705" cy="42.8286" rx="2.73374" ry="2.71547" transform="rotate(90 82.3705 42.8286)" fill="#14A800"/>
<ellipse cx="82.3705" cy="82.9235" rx="2.73374" ry="2.71547" transform="rotate(90 82.3705 82.9235)" fill="#14A800"/>
<ellipse cx="82.3705" cy="123.018" rx="2.73374" ry="2.71547" transform="rotate(90 82.3705 123.018)" fill="#14A800"/>
<ellipse cx="82.3705" cy="163.113" rx="2.73374" ry="2.71547" transform="rotate(90 82.3705 163.113)" fill="#14A800"/>
<ellipse cx="42.5433" cy="2.73377" rx="2.73374" ry="2.71547" transform="rotate(90 42.5433 2.73377)" fill="#14A800"/>
<ellipse cx="42.5433" cy="42.8287" rx="2.73374" ry="2.71547" transform="rotate(90 42.5433 42.8287)" fill="#14A800"/>
<ellipse cx="42.5433" cy="82.9235" rx="2.73374" ry="2.71547" transform="rotate(90 42.5433 82.9235)" fill="#14A800"/>
<ellipse cx="42.5433" cy="123.018" rx="2.73374" ry="2.71547" transform="rotate(90 42.5433 123.018)" fill="#14A800"/>
<ellipse cx="42.5433" cy="163.113" rx="2.73374" ry="2.71547" transform="rotate(90 42.5433 163.113)" fill="#14A800"/>
<ellipse cx="2.71568" cy="2.73377" rx="2.73374" ry="2.71547" transform="rotate(90 2.71568 2.73377)" fill="#14A800"/>
<ellipse cx="2.71568" cy="42.8286" rx="2.73374" ry="2.71547" transform="rotate(90 2.71568 42.8286)" fill="#14A800"/>
<ellipse cx="2.71568" cy="82.9235" rx="2.73374" ry="2.71547" transform="rotate(90 2.71568 82.9235)" fill="#14A800"/>
<ellipse cx="2.71568" cy="123.018" rx="2.73374" ry="2.71547" transform="rotate(90 2.71568 123.018)" fill="#14A800"/>
<ellipse cx="2.71568" cy="163.113" rx="2.73374" ry="2.71547" transform="rotate(90 2.71568 163.113)" fill="#14A800"/>
</svg>
