<svg width="290" height="118" viewBox="0 0 290 118" fill="none" xmlns="http://www.w3.org/2000/svg">
<rect width="290" height="93" fill="url(#paint0_linear_515_363)"/>
<mask id="mask0_515_363" style="mask-type:alpha" maskUnits="userSpaceOnUse" x="0" y="0" width="290" height="93">
<rect width="290" height="93" fill="url(#paint1_linear_515_363)"/>
</mask>
<g mask="url(#mask0_515_363)">
<path d="M181.578 53.4523L217.358 71.4671C217.77 71.076 218.238 70.7086 218.744 70.3649L183.039 52.3975C182.683 52.8123 182.177 53.1797 181.578 53.4523Z" fill="#FFC400"/>
<path d="M34.4804 33.1968L32.0651 30.6249C31.1476 31.182 30.5859 31.9642 30.5859 32.8294C30.5859 34.5242 32.7578 35.899 35.4353 35.899C38.1127 35.899 40.2846 34.5242 40.2846 32.8294C40.2846 31.1346 38.1127 29.7598 35.4353 29.7598C34.9298 29.7598 34.443 29.8072 33.9749 29.902L36.3902 32.4738L34.4804 33.1968Z" fill="#FFC400"/>
<path d="M173.914 50.9508C173.914 51.6145 174.251 52.2426 174.832 52.7404L177.172 50.7967L176.105 48.3789C174.775 48.9359 173.914 49.8841 173.914 50.9508Z" fill="#FFC400"/>
<path d="M179.458 50.7618L178.391 50.9515L179.271 51.3781L176.5 53.6655C177.174 53.8907 177.942 54.0211 178.747 54.0211C179.795 54.0211 180.769 53.8078 181.555 53.4522C182.173 53.1796 182.66 52.8122 183.016 52.3974C183.371 51.9707 183.577 51.4729 183.577 50.9515C183.577 49.2567 181.406 47.8818 178.728 47.8818C178.541 47.8818 178.354 47.8937 178.166 47.9055L179.458 50.7618Z" fill="#FFC400"/>
<path d="M131.133 91.2707L132.855 91.01C132.687 90.7848 132.462 90.5715 132.2 90.3818L131.133 91.2707Z" fill="#FFC400"/>
<path d="M123.346 92.0654C123.327 92.1839 123.309 92.3025 123.309 92.421C123.309 94.1751 125.555 95.6092 128.345 95.6092C128.963 95.6092 129.562 95.5381 130.105 95.4077L127.615 93.0136L123.346 92.0654Z" fill="#FFC400"/>
<path d="M128.343 89.2324C126.546 89.2324 124.954 89.8369 124.074 90.7376L127.95 91.5909L130.44 89.5287C129.804 89.3391 129.092 89.2324 128.343 89.2324Z" fill="#FFC400"/>
<path d="M131.96 94.625C132.84 94.0561 133.364 93.2739 133.364 92.4087C133.364 92.3969 133.364 92.3732 133.364 92.3613L130.125 92.8591L131.96 94.625Z" fill="#FFC400"/>
<path d="M5.35156 6.85036C6.26901 7.49036 7.59837 7.88147 9.05879 7.88147C9.60177 7.88147 10.126 7.82221 10.6128 7.72739L8.6656 5.65332L5.35156 6.85036Z" fill="#FFC400"/>
<path d="M12.5221 7.0166C13.1962 6.61364 13.683 6.09215 13.9264 5.51141L11.043 5.45215L12.5221 7.0166Z" fill="#FFC400"/>
<path d="M14.004 4.11287C13.6108 2.76176 11.8508 1.70694 9.66016 1.54102L10.0533 4.01805L14.004 4.11287Z" fill="#FFC400"/>
<path d="M7.46934 1.68262C5.46594 2.10928 4.04297 3.29447 4.04297 4.70484C4.04297 5.02484 4.11786 5.34484 4.26765 5.64114L7.89998 4.32558L7.46934 1.68262Z" fill="#FFC400"/>
<path d="M38.7155 82.8447L30.9453 112H34.3904L42.067 83.2003C40.9061 83.1647 39.7827 83.0462 38.7155 82.8447Z" fill="#FFAB00"/>
<path d="M-21.7422 15.0521V16.664L5.35051 6.85062C4.84498 6.50692 4.47052 6.09211 4.24584 5.62988L-21.7422 15.0521Z" fill="url(#paint2_linear_515_363)"/>
<path d="M8.10701 5.06099L9.0619 4.70543L7.95723 4.77654L7.88233 4.32617L4.25 5.64173C4.47468 6.10395 4.84915 6.51876 5.35468 6.86247L8.66871 5.66543L8.10701 5.06099Z" fill="#FFC400"/>
<path d="M8.10701 5.06099L9.0619 4.70543L7.95723 4.77654L7.88233 4.32617L4.25 5.64173C4.47468 6.10395 4.84915 6.51876 5.35468 6.86247L8.66871 5.66543L8.10701 5.06099Z" fill="url(#paint3_linear_515_363)"/>
<path d="M264.67 34.7611C264.408 34.69 264.146 34.607 263.884 34.5359C263.865 34.5241 263.846 34.5241 263.809 34.5122C263.547 34.4292 263.266 34.3463 263.004 34.2633C262.967 34.2515 262.929 34.2396 262.91 34.2278C262.555 34.1092 262.218 33.9907 261.881 33.8604L235.031 67.8633C236.098 68.1122 237.128 68.4441 238.064 68.8352L264.914 34.8322C264.858 34.8203 264.783 34.7966 264.726 34.7848C264.708 34.7729 264.689 34.7729 264.67 34.7611Z" fill="#FFAB00"/>
<path d="M249.9 18.9033C250.013 18.1803 250.2 17.4692 250.462 16.7818L174.071 8.55664C173.921 9.2796 173.659 9.99071 173.266 10.6544L249.9 18.9033Z" fill="#FFAB00"/>
<path d="M128.606 93.0965L128.343 92.4209L127.988 93.0846L127.613 93.0016L130.103 95.4076L147.329 112H149.988L131.957 94.6253L130.141 92.8713L128.606 93.0965Z" fill="#FFC400"/>
<path d="M50.5845 74.6074C50.3411 75.0578 49.9853 75.4845 49.5547 75.8637L123.343 92.0652C123.437 91.5793 123.68 91.1289 124.074 90.7378L50.5845 74.6074Z" fill="url(#paint4_linear_515_363)"/>
<path d="M127.987 93.084L128.343 92.4203L127.463 91.9936L127.95 91.5906L124.074 90.7373C123.681 91.1284 123.437 91.5788 123.344 92.0647L127.631 93.001L127.987 93.084Z" fill="#FFC400"/>
<path d="M127.987 93.084L128.343 92.4203L127.463 91.9936L127.95 91.5906L124.074 90.7373C123.681 91.1284 123.437 91.5788 123.344 92.0647L127.631 93.001L127.987 93.084Z" fill="url(#paint5_linear_515_363)"/>
<path d="M132.856 91.0106L131.134 91.2714L129.224 92.8477L128.344 92.421L128.606 93.1084L130.141 92.8714L133.38 92.3736L215.464 79.7751C215.239 79.3366 215.07 78.8743 214.939 78.4121L132.856 91.0106Z" fill="#FFC400"/>
<path d="M50.3597 70.886L149.799 14.886C148.901 14.4475 148.077 13.9379 147.365 13.3809L48.375 69.1201C49.2363 69.6179 49.9103 70.2105 50.3597 70.886Z" fill="#FFAB00"/>
<path d="M-21.7422 75.2588V76.6692L35.233 74.6425C34.9896 74.204 34.8398 73.7418 34.7836 73.2559L-21.7422 75.2588Z" fill="url(#paint6_linear_515_363)"/>
<path d="M-21.7422 57.0781V59.3774L34.7649 72.8767C34.7836 72.1181 35.0458 71.407 35.5138 70.7552L-21.7422 57.0781Z" fill="#FFAB00"/>
<path d="M178.187 47.9051L164.201 16.3555C163.508 16.5095 162.797 16.6399 162.066 16.7347L176.109 48.391C176.708 48.1302 177.42 47.9643 178.187 47.9051Z" fill="url(#paint7_linear_515_363)"/>
<path d="M177.172 50.8089L177.509 50.5363L178.389 50.963L179.456 50.7733L178.183 47.917C177.415 47.9763 176.704 48.1422 176.086 48.4029L177.172 50.8089Z" fill="#FFC400"/>
<path d="M177.172 50.8089L177.509 50.5363L178.389 50.963L179.456 50.7733L178.183 47.917C177.415 47.9763 176.704 48.1422 176.086 48.4029L177.172 50.8089Z" fill="url(#paint8_linear_515_363)"/>
<path d="M144.016 7.01601L14.0007 4.1123C14.0568 4.30193 14.0943 4.50342 14.0943 4.7049C14.0943 4.98934 14.0381 5.26193 13.9258 5.51082L144.091 8.42638C144.034 8.07083 143.997 7.71527 143.997 7.35971C143.997 7.2412 143.997 7.13453 144.016 7.01601Z" fill="url(#paint9_linear_515_363)"/>
<path d="M14.0022 4.11226L10.0703 4.0293L10.1452 4.47967L11.0627 5.45152L13.946 5.51078C14.0584 5.25004 14.1146 4.97744 14.1146 4.70485C14.0958 4.50337 14.0584 4.30189 14.0022 4.11226Z" fill="#FFC400"/>
<path d="M14.0022 4.11226L10.0703 4.0293L10.1452 4.47967L11.0627 5.45152L13.946 5.51078C14.0584 5.25004 14.1146 4.97744 14.1146 4.70485C14.0958 4.50337 14.0584 4.30189 14.0022 4.11226Z" fill="url(#paint10_linear_515_363)"/>
<path d="M7.95466 4.7763L9.05934 4.70518L10.0142 4.34963L10.1453 4.48L10.0704 4.02963L9.67721 1.54074L6.86871 -16H4.64062L7.46785 1.68296L7.87977 4.32593L7.95466 4.7763Z" fill="#FFC400"/>
<path d="M149.82 14.8854C152.385 16.1536 155.605 16.9121 159.107 16.9121C160.118 16.9121 161.11 16.8528 162.084 16.7225C162.814 16.6276 163.525 16.5091 164.218 16.3432C168.412 15.3832 171.745 13.2973 173.28 10.6425C173.673 9.97876 173.936 9.26765 174.085 8.54469C174.16 8.15357 174.216 7.75061 174.216 7.34765C174.216 2.19209 167.776 -2.00346 159.706 -2.20495C159.519 -2.20495 159.313 -2.2168 159.125 -2.2168C158.564 -2.2168 158.021 -2.19309 157.478 -2.15754C150.082 -1.64791 144.296 2.22765 144.034 7.00394C144.034 7.11061 144.016 7.22913 144.016 7.34765C144.016 7.7032 144.053 8.07061 144.109 8.41431C144.446 10.2869 145.607 11.9817 147.386 13.3684C148.097 13.9373 148.921 14.4469 149.82 14.8854Z" fill="#FFAB00"/>
<path d="M10.1424 4.47998L10.0113 4.34961L9.05646 4.70516L8.10156 5.06072L8.66326 5.65331L10.6105 7.73924L32.0675 30.637L34.4828 33.197L36.3926 32.4859L33.9772 29.9141L12.5203 7.01628L11.0411 5.45183L10.1424 4.47998Z" fill="#FFC400"/>
<path d="M229.825 67.2949C225.444 67.2949 221.494 68.4801 218.741 70.3764C218.236 70.7201 217.786 71.0875 217.356 71.4786C215.708 73.0075 214.734 74.8683 214.734 76.8594C214.734 77.3927 214.809 77.9142 214.94 78.4238C215.053 78.886 215.24 79.3483 215.465 79.7868C217.412 83.6268 223.104 86.412 229.844 86.412C238.176 86.412 244.935 82.1334 244.935 76.8594C244.935 73.5053 242.202 70.5542 238.064 68.8475C237.109 68.4564 236.098 68.1364 235.031 67.8757C233.402 67.4964 231.642 67.2949 229.825 67.2949Z" fill="#FFC400"/>
<path d="M176.501 53.6652L179.272 51.3777L178.392 50.9511L177.512 50.5244L177.175 50.8089L174.835 52.7407L130.442 89.5289L127.952 91.5911L127.465 91.994L128.345 92.4207L129.225 92.8474L131.135 91.2711L132.202 90.3822L176.501 53.6652Z" fill="#FFC400"/>
<path d="M289.01 32.9717C288.766 33.0902 288.504 33.2087 288.242 33.3154C288.504 33.1969 288.766 33.0902 289.01 32.9717Z" fill="#FFC400"/>
<path d="M278.317 35.8281C278.037 35.8518 277.737 35.8874 277.438 35.9111C277.737 35.8874 278.018 35.8518 278.317 35.8281Z" fill="#FFC400"/>
<path d="M268.343 35.5553C268.062 35.5079 267.781 35.4605 267.5 35.4131C267.781 35.4605 268.062 35.5079 268.343 35.5553Z" fill="#FFC400"/>
<path d="M279.364 35.71C279.084 35.7455 278.784 35.7811 278.484 35.8166C278.784 35.7811 279.065 35.7455 279.364 35.71Z" fill="#FFC400"/>
<path d="M288.221 33.3271C287.977 33.4338 287.715 33.5405 287.453 33.6471C287.715 33.5405 287.977 33.4338 288.221 33.3271Z" fill="#FFC400"/>
<path d="M274.367 36.0294C274.667 36.0294 274.985 36.0294 275.285 36.0176C274.985 36.0176 274.685 36.0294 274.367 36.0294Z" fill="#FFC400"/>
<path d="M277.324 35.9111C277.043 35.9348 276.781 35.9467 276.5 35.9585C276.781 35.9585 277.043 35.9348 277.324 35.9111Z" fill="#FFC400"/>
<path d="M276.353 35.9707C276.053 35.9826 275.772 35.9944 275.473 36.0063C275.772 36.0063 276.072 35.9944 276.353 35.9707Z" fill="#FFC400"/>
<path d="M274.367 36.0294C274.067 36.0294 273.749 36.0294 273.449 36.0176C273.749 36.0176 274.067 36.0294 274.367 36.0294Z" fill="#FFC400"/>
<path d="M284.011 34.7852C283.73 34.8563 283.45 34.9274 283.188 34.9985C283.468 34.9274 283.749 34.8563 284.011 34.7852Z" fill="#FFC400"/>
<path d="M284.871 34.5361C284.609 34.6191 284.328 34.6902 284.047 34.7731C284.328 34.702 284.59 34.6191 284.871 34.5361Z" fill="#FFC400"/>
<path d="M283.053 35.0225C282.773 35.0936 282.492 35.1528 282.211 35.2121C282.492 35.1528 282.773 35.0936 283.053 35.0225Z" fill="#FFC400"/>
<path d="M281.241 35.4131C280.96 35.4605 280.679 35.5079 280.398 35.5553C280.679 35.5079 280.96 35.4605 281.241 35.4131Z" fill="#FFC400"/>
<path d="M280.249 35.5791C279.968 35.6265 279.687 35.6621 279.406 35.6976C279.687 35.6621 279.968 35.6265 280.249 35.5791Z" fill="#FFC400"/>
<path d="M285.735 34.2637C285.473 34.3466 285.192 34.4414 284.93 34.5244C285.192 34.4414 285.473 34.3585 285.735 34.2637Z" fill="#FFC400"/>
<path d="M282.194 35.2236C281.913 35.2829 281.632 35.3422 281.352 35.3896C281.632 35.3303 281.913 35.2829 282.194 35.2236Z" fill="#FFC400"/>
<path d="M287.401 33.6709C286.895 33.8724 286.352 34.062 285.828 34.2398C286.352 34.062 286.877 33.8724 287.401 33.6709Z" fill="#FFC400"/>
<path d="M270.247 35.804C269.948 35.7684 269.667 35.7447 269.367 35.6973C269.667 35.7447 269.948 35.7802 270.247 35.804Z" fill="#FFC400"/>
<path d="M272.234 35.9704C271.953 35.9585 271.691 35.9348 271.41 35.9111C271.691 35.9348 271.953 35.9467 272.234 35.9704Z" fill="#FFC400"/>
<path d="M267.366 35.3896C267.085 35.3422 266.804 35.2829 266.523 35.2236C266.804 35.271 267.085 35.3303 267.366 35.3896Z" fill="#FFC400"/>
<path d="M292.662 30.8622C293.411 30.3289 294.123 29.76 294.759 29.1674C297.418 26.6785 298.972 23.68 298.972 20.4444C298.972 17.9674 298.055 15.6326 296.445 13.5585C296.108 13.1318 295.752 12.7289 295.377 12.3259C291.052 7.85776 283.263 4.87109 274.388 4.87109C262.799 4.87109 253.081 9.94368 250.479 16.7703C250.217 17.4578 250.029 18.1689 249.917 18.8918C249.842 19.4015 249.805 19.9111 249.805 20.4326C249.805 25.7659 254.036 30.4711 260.496 33.28C260.252 33.1733 259.99 33.0548 259.747 32.9481C261.357 32.2133 263.098 31.597 264.971 31.1111C266.319 30.7555 267.405 30.1392 268.097 29.357H262.668C261.301 29.357 260.458 28.4444 261.095 27.674C261.825 26.7852 262.256 25.7659 262.256 24.6992V19.0459C262.256 18.4059 262.387 17.7778 262.611 17.1733C263.697 13.5348 268.846 10.8089 274.969 10.9866C280.118 11.1407 284.443 13.3807 285.885 16.3792C286.334 17.2207 286.559 18.1215 286.559 19.0222V24.6874C286.559 25.7659 286.971 26.7733 287.701 27.674C288.337 28.4444 287.476 29.357 286.109 29.357H280.698C281.391 30.1392 282.496 30.7674 283.844 31.1229C285.697 31.6089 287.439 32.2252 289.049 32.96C290.341 32.3437 291.558 31.6444 292.662 30.8622Z" fill="#FFC400"/>
<path d="M271.294 35.9111C270.994 35.8874 270.714 35.8637 270.414 35.8281C270.714 35.8518 270.994 35.8874 271.294 35.9111Z" fill="#FFC400"/>
<path d="M266.522 35.2121C266.241 35.1528 265.961 35.0817 265.68 35.0225C265.942 35.0936 266.223 35.1528 266.522 35.2121Z" fill="#FFC400"/>
<path d="M260.516 33.3154C260.759 33.4221 261.002 33.5288 261.265 33.6236C261.002 33.5288 260.759 33.4221 260.516 33.3154Z" fill="#FFC400"/>
<path d="M273.263 36.0063C272.963 35.9944 272.664 35.9826 272.383 35.9707C272.682 35.9944 272.963 36.0063 273.263 36.0063Z" fill="#FFC400"/>
<path d="M269.312 35.6976C269.031 35.6621 268.75 35.6147 268.488 35.5791C268.769 35.6147 269.031 35.6621 269.312 35.6976Z" fill="#FFC400"/>
<path d="M263.863 34.5361C264.125 34.6191 264.388 34.6902 264.65 34.7613C264.388 34.6902 264.125 34.6191 263.863 34.5361Z" fill="#FFC400"/>
<path d="M263.008 34.2637C263.27 34.3466 263.532 34.4296 263.813 34.5126C263.532 34.4414 263.27 34.3585 263.008 34.2637Z" fill="#FFC400"/>
<path d="M264.727 34.7852C264.783 34.797 264.858 34.8207 264.914 34.8326C265.12 34.8918 265.326 34.9392 265.532 34.9866C265.27 34.9274 264.989 34.8563 264.727 34.7852Z" fill="#FFC400"/>
<path d="M262.91 34.2281C262.385 34.0503 261.861 33.8607 261.355 33.6592C261.524 33.7303 261.711 33.8014 261.88 33.8607C262.217 33.991 262.554 34.1214 262.91 34.2281Z" fill="#FFC400"/>
<path d="M280.658 29.3688H286.07C287.436 29.3688 288.279 28.4562 287.661 27.6859C286.931 26.797 286.519 25.7777 286.519 24.6992V19.034C286.519 18.1333 286.294 17.2325 285.845 16.391C284.403 13.3807 280.078 11.1407 274.929 10.9985C268.807 10.8207 263.639 13.5466 262.572 17.1851C262.328 17.7896 262.216 18.4177 262.216 19.0577V24.711C262.216 25.7896 261.804 26.797 261.055 27.6859C260.419 28.4562 261.261 29.3688 262.628 29.3688H268.058C267.384 30.1392 266.298 30.7673 264.931 31.1229C263.077 31.6088 261.317 32.2251 259.707 32.9599C259.95 33.0785 260.194 33.1851 260.456 33.2918C260.475 33.3036 260.493 33.3036 260.512 33.3155C260.756 33.4222 260.999 33.5288 261.261 33.6236C261.28 33.6355 261.317 33.6473 261.336 33.6592C261.842 33.8607 262.366 34.0503 262.89 34.2281C262.927 34.2399 262.965 34.2518 262.984 34.2636C263.246 34.3466 263.508 34.4296 263.789 34.5125C263.807 34.5244 263.826 34.5244 263.864 34.5362C264.126 34.6192 264.388 34.6903 264.65 34.7614C264.669 34.7614 264.687 34.7733 264.706 34.7733C264.968 34.8444 265.249 34.9155 265.53 34.9866C265.567 34.9985 265.624 35.0103 265.661 35.0222C265.942 35.0933 266.223 35.1525 266.504 35.2118C266.504 35.2118 266.504 35.2118 266.522 35.2118C266.803 35.271 267.084 35.3303 267.365 35.3777C267.402 35.3896 267.459 35.3896 267.496 35.4014C267.777 35.4488 268.058 35.4962 268.339 35.5436C268.376 35.5555 268.432 35.5555 268.488 35.5673C268.769 35.6148 269.05 35.6503 269.312 35.6859C269.331 35.6859 269.35 35.6859 269.368 35.6977C269.649 35.7333 269.949 35.7688 270.248 35.8044C270.304 35.8162 270.361 35.8162 270.417 35.8281C270.698 35.8518 270.997 35.8873 271.297 35.911C271.334 35.911 271.372 35.911 271.409 35.9229C271.69 35.9466 271.952 35.9585 272.233 35.9822C272.289 35.9822 272.327 35.994 272.383 35.994C272.682 36.0059 272.963 36.0177 273.263 36.0296C273.319 36.0296 273.394 36.0296 273.45 36.0296C273.75 36.0414 274.068 36.0414 274.367 36.0414C274.667 36.0414 274.985 36.0414 275.285 36.0296C275.341 36.0296 275.416 36.0296 275.472 36.0296C275.772 36.0177 276.071 36.0059 276.352 35.994C276.408 35.994 276.446 35.994 276.502 35.9822C276.783 35.9703 277.045 35.9466 277.326 35.9348C277.363 35.9348 277.401 35.9348 277.438 35.9229C277.738 35.8992 278.018 35.8755 278.318 35.8399C278.374 35.8281 278.43 35.8281 278.487 35.8162C278.786 35.7807 279.067 35.757 279.367 35.7096C279.385 35.7096 279.385 35.7096 279.404 35.7096C279.685 35.674 279.966 35.6266 280.247 35.591C280.284 35.5792 280.34 35.5792 280.378 35.5673C280.658 35.5199 280.939 35.4725 281.22 35.4251C281.258 35.4133 281.295 35.4133 281.351 35.4014C281.632 35.354 281.913 35.2948 282.194 35.2355H282.213C282.493 35.1762 282.774 35.1051 283.055 35.0459C283.093 35.034 283.13 35.0222 283.167 35.0222C283.448 34.951 283.729 34.8799 283.991 34.8088C284.01 34.8088 284.01 34.8088 284.029 34.797C284.31 34.7259 284.572 34.6429 284.853 34.5599C284.871 34.5481 284.89 34.5481 284.909 34.5481C285.19 34.4651 285.452 34.3822 285.714 34.2873C285.733 34.2755 285.77 34.2636 285.789 34.2636C286.332 34.0859 286.856 33.8962 287.361 33.6947C287.38 33.6829 287.399 33.6829 287.436 33.671C287.698 33.5644 287.942 33.4577 288.204 33.351L288.223 33.3392C288.485 33.2325 288.728 33.114 288.99 32.9955C287.399 32.2607 285.658 31.6444 283.785 31.1585C282.437 30.7792 281.351 30.151 280.658 29.3688Z" fill="#FFAB00"/>
<path d="M42.9096 83.2234C51.0166 83.2234 57.5887 79.0633 57.5887 73.9315C57.5887 68.7998 51.0166 64.6396 42.9096 64.6396C34.8025 64.6396 28.2305 68.7998 28.2305 73.9315C28.2305 79.0633 34.8025 83.2234 42.9096 83.2234Z" fill="#FF991F"/>
<path d="M51.0362 72.7228C50.9988 72.071 50.7741 71.4547 50.3809 70.8858C49.9128 70.2102 49.2388 69.6176 48.3962 69.1199C47.0294 68.3258 45.2507 67.828 43.3035 67.7687C39.8584 67.6739 36.8626 68.9184 35.5146 70.7554C35.0465 71.3954 34.7656 72.1184 34.7656 72.8769C34.7656 72.8887 34.7656 72.9124 34.7656 72.9243C34.7656 73.031 34.7656 73.1495 34.7843 73.2561C34.8405 73.7421 34.9903 74.2043 35.2337 74.6428C35.7205 75.508 36.5631 76.2665 37.649 76.8472C38.6039 77.3687 39.1843 78.1154 39.1843 78.9095C39.1843 79.9998 38.1358 80.9954 36.5256 81.3984C36.0201 81.5287 35.552 81.6709 35.0652 81.825C36.1886 82.2635 37.4243 82.6072 38.7163 82.8324C39.7835 83.0221 40.9069 83.1524 42.0677 83.188C42.3486 83.1998 42.6107 83.1998 42.8916 83.1998C45.7562 83.1998 48.4524 82.6902 50.7367 81.8132C50.2686 81.6591 49.8005 81.5169 49.3137 81.3984C47.7035 80.9835 46.6362 79.9998 46.6362 78.8976C46.6362 78.1154 47.1605 77.3569 48.1154 76.8591C48.6584 76.5628 49.1452 76.2309 49.5571 75.8635C49.9877 75.4724 50.3247 75.0576 50.5869 74.6073C50.9052 74.0147 51.0737 73.3865 51.0362 72.7228Z" fill="#FFC400"/>
</g>
<path d="M138.126 67.5361H154.39C154.763 67.5361 155.121 67.6865 155.385 67.9541C155.649 68.2216 155.797 68.5846 155.797 68.963H136.719C136.719 68.5846 136.867 68.2216 137.131 67.9541C137.395 67.6865 137.753 67.5361 138.126 67.5361Z" fill="url(#paint11_linear_515_363)"/>
<path d="M144.634 65.432H147.901C148.154 65.432 148.397 65.5339 148.576 65.7153C148.755 65.8967 148.855 66.1428 148.855 66.3993V67.5118H143.657V66.4235C143.653 66.2924 143.676 66.162 143.724 66.0402C143.772 65.9184 143.844 65.8077 143.936 65.715C144.027 65.6222 144.136 65.5493 144.256 65.5007C144.376 65.452 144.505 65.4286 144.634 65.432Z" fill="url(#paint12_linear_515_363)"/>
<path d="M136.719 106.304H155.797C155.797 106.491 155.761 106.677 155.69 106.85C155.619 107.023 155.516 107.18 155.385 107.313C155.254 107.445 155.099 107.55 154.928 107.622C154.758 107.694 154.575 107.731 154.39 107.731H138.126C137.753 107.731 137.395 107.58 137.131 107.313C136.867 107.045 136.719 106.682 136.719 106.304Z" fill="#A5ADBA"/>
<path d="M158.182 75.372V69.9306C158.182 69.8015 158.156 69.6737 158.107 69.5547C158.057 69.4357 157.985 69.328 157.894 69.2378C157.803 69.1477 157.695 69.0769 157.576 69.0298C157.458 68.9826 157.331 68.96 157.204 68.9632H134.954C134.701 68.9632 134.458 69.0651 134.279 69.2465C134.101 69.4279 134 69.674 134 69.9306V105.336C134 105.593 134.101 105.839 134.279 106.02C134.458 106.202 134.701 106.304 134.954 106.304H157.204C157.331 106.307 157.458 106.284 157.576 106.237C157.695 106.19 157.803 106.119 157.894 106.029C157.985 105.939 158.057 105.831 158.107 105.712C158.156 105.593 158.182 105.465 158.182 105.336V75.372Z" fill="url(#paint13_linear_515_363)"/>
<path d="M157.204 68.9632H134.954C134.701 68.9632 134.458 69.0651 134.279 69.2465C134.101 69.4279 134 69.674 134 69.9306V78.0807H158.182V69.9306C158.182 69.8015 158.156 69.6737 158.107 69.5547C158.057 69.4357 157.985 69.328 157.894 69.2378C157.803 69.1477 157.695 69.0769 157.576 69.0298C157.458 68.9826 157.331 68.96 157.204 68.9632Z" fill="url(#paint14_linear_515_363)"/>
<path d="M146.02 59.2402H148.643L146.02 63.6418V59.2402Z" fill="#FFAB00"/>
<path d="M146.998 60.4015H144.375L146.998 56V60.4015Z" fill="#FFAB00"/>
<path d="M151.313 61.4658L152.911 62.0462L150.383 64.1503L151.313 61.4658Z" fill="#FFAB00"/>
<path d="M151.672 62.3849L150.074 61.8286L152.602 59.7246L151.672 62.3849Z" fill="#FFAB00"/>
<path d="M141.2 61.9015L142.774 61.3452L140.27 59.2412L141.2 61.9015Z" fill="#FFAB00"/>
<path d="M141.535 60.9824L139.938 61.5628L142.465 63.6669L141.535 60.9824Z" fill="#FFAB00"/>
<path d="M146.83 114.405H144.207L146.83 110.004V114.405Z" fill="#FFAB00"/>
<path d="M145.852 113.244H148.499L145.852 117.646V113.244Z" fill="#FFAB00"/>
<path d="M141.535 112.181L139.938 111.6L142.465 109.496L141.535 112.181Z" fill="#FFAB00"/>
<path d="M141.2 111.262L142.774 111.842L140.27 113.946L141.2 111.262Z" fill="#FFAB00"/>
<path d="M151.672 111.745L150.074 112.326L152.602 114.43L151.672 111.745Z" fill="#FFAB00"/>
<path d="M151.313 112.664L152.911 112.084L150.383 109.979L151.313 112.664Z" fill="#FFAB00"/>
<path d="M146.305 98.056C149.821 98.056 152.672 95.165 152.672 91.5988C152.672 88.0326 149.821 85.1416 146.305 85.1416C142.788 85.1416 139.938 88.0326 139.938 91.5988C139.938 95.165 142.788 98.056 146.305 98.056Z" fill="#0052CC"/>
<path opacity="0.9" d="M142.753 95.0361L143.649 89.3961H145.969C146.593 89.3961 147.044 89.5215 147.321 89.7721C147.604 90.0175 147.745 90.3375 147.745 90.7321C147.745 91.0948 147.641 91.4015 147.433 91.6521C147.231 91.8975 146.959 92.0681 146.617 92.1641C146.889 92.2601 147.1 92.4121 147.249 92.6201C147.399 92.8281 147.473 93.0735 147.473 93.3561C147.473 93.9055 147.292 94.3241 146.929 94.6121C146.567 94.8948 146.065 95.0361 145.425 95.0361H142.753ZM144.257 91.7881H145.625C145.983 91.7881 146.26 91.7081 146.457 91.5481C146.655 91.3881 146.753 91.1561 146.753 90.8521C146.753 90.6335 146.676 90.4655 146.521 90.3481C146.372 90.2308 146.135 90.1721 145.809 90.1721H144.513L144.257 91.7881ZM143.857 94.2601H145.377C145.745 94.2601 146.02 94.1775 146.201 94.0121C146.388 93.8468 146.481 93.6095 146.481 93.3001C146.481 93.0548 146.399 92.8708 146.233 92.7481C146.073 92.6255 145.839 92.5641 145.529 92.5641H144.129L143.857 94.2601ZM148.261 95.0361L149.157 89.3961H150.181L149.285 95.0361H148.261Z" fill="white"/>
<path opacity="0.3" d="M156.416 68.9629H148.117V106.303H156.416V68.9629Z" fill="url(#paint15_linear_515_363)"/>
<defs>
<linearGradient id="paint0_linear_515_363" x1="145" y1="93" x2="145" y2="0" gradientUnits="userSpaceOnUse">
<stop stop-color="#FFAB00"/>
<stop offset="0.9949" stop-color="#FF991F"/>
</linearGradient>
<linearGradient id="paint1_linear_515_363" x1="145" y1="93" x2="145" y2="0" gradientUnits="userSpaceOnUse">
<stop stop-color="#FFAB00"/>
<stop offset="0.9949" stop-color="#FF991F"/>
</linearGradient>
<linearGradient id="paint2_linear_515_363" x1="-92.7865" y1="11.154" x2="9.61158" y2="11.154" gradientUnits="userSpaceOnUse">
<stop offset="0.2375" stop-color="#FFAB00"/>
<stop offset="1" stop-color="#FFC400"/>
</linearGradient>
<linearGradient id="paint3_linear_515_363" x1="-92.7824" y1="5.58864" x2="9.61574" y2="5.58864" gradientUnits="userSpaceOnUse">
<stop offset="0.2375" stop-color="#FFAB00"/>
<stop offset="1" stop-color="#FFC400"/>
</linearGradient>
<linearGradient id="paint4_linear_515_363" x1="42.5236" y1="83.336" x2="128.705" y2="83.336" gradientUnits="userSpaceOnUse">
<stop offset="0.2375" stop-color="#FFAB00"/>
<stop offset="1" stop-color="#FFC400"/>
</linearGradient>
<linearGradient id="paint5_linear_515_363" x1="42.524" y1="91.9103" x2="128.705" y2="91.9103" gradientUnits="userSpaceOnUse">
<stop offset="0.2375" stop-color="#FFAB00"/>
<stop offset="1" stop-color="#FFC400"/>
</linearGradient>
<linearGradient id="paint6_linear_515_363" x1="-71.5169" y1="74.9555" x2="42.9508" y2="74.9555" gradientUnits="userSpaceOnUse">
<stop stop-color="#FFC400"/>
<stop offset="0.7625" stop-color="#FFAB00"/>
</linearGradient>
<linearGradient id="paint7_linear_515_363" x1="158.309" y1="32.3701" x2="179.455" y2="32.3701" gradientUnits="userSpaceOnUse">
<stop offset="0.2375" stop-color="#FFAB00"/>
<stop offset="1" stop-color="#FFC400"/>
</linearGradient>
<linearGradient id="paint8_linear_515_363" x1="158.304" y1="49.428" x2="179.451" y2="49.428" gradientUnits="userSpaceOnUse">
<stop offset="0.2375" stop-color="#FFAB00"/>
<stop offset="1" stop-color="#FFC400"/>
</linearGradient>
<linearGradient id="paint9_linear_515_363" x1="9.02168" y1="6.26899" x2="159.414" y2="6.26899" gradientUnits="userSpaceOnUse">
<stop stop-color="#FFC400"/>
<stop offset="0.7625" stop-color="#FFAB00"/>
</linearGradient>
<linearGradient id="paint10_linear_515_363" x1="9.02323" y1="4.76905" x2="159.416" y2="4.76905" gradientUnits="userSpaceOnUse">
<stop stop-color="#FFC400"/>
<stop offset="0.7625" stop-color="#FFAB00"/>
</linearGradient>
<linearGradient id="paint11_linear_515_363" x1="1580.95" y1="139.807" x2="3107.78" y2="139.807" gradientUnits="userSpaceOnUse">
<stop stop-color="#A5ADBA"/>
<stop offset="0.41" stop-color="#C5C9D2"/>
<stop offset="0.76" stop-color="#D8DBE0"/>
<stop offset="1" stop-color="#DFE1E5"/>
</linearGradient>
<linearGradient id="paint12_linear_515_363" x1="688.682" y1="155.627" x2="801.867" y2="155.627" gradientUnits="userSpaceOnUse">
<stop stop-color="#A5ADBA"/>
<stop offset="0.41" stop-color="#C5C9D2"/>
<stop offset="0.76" stop-color="#D8DBE0"/>
<stop offset="1" stop-color="#DFE1E5"/>
</linearGradient>
<linearGradient id="paint13_linear_515_363" x1="1396.77" y1="7296.71" x2="5673.86" y2="4526.69" gradientUnits="userSpaceOnUse">
<stop stop-color="#FF991F"/>
<stop offset="0.28" stop-color="#FFAA13"/>
<stop offset="0.71" stop-color="#FFBD05"/>
<stop offset="1" stop-color="#FFC400"/>
</linearGradient>
<linearGradient id="paint14_linear_515_363" x1="132.469" y1="73.5243" x2="159.157" y2="73.5243" gradientUnits="userSpaceOnUse">
<stop stop-color="#253858"/>
<stop offset="0.07" stop-color="#283B5A"/>
<stop offset="0.62" stop-color="#3B4C69"/>
<stop offset="1" stop-color="#42526E"/>
</linearGradient>
<linearGradient id="paint15_linear_515_363" x1="148.129" y1="87.6331" x2="156.428" y2="87.6331" gradientUnits="userSpaceOnUse">
<stop stop-color="#FFF0B2" stop-opacity="0"/>
<stop offset="0.04" stop-color="#FFF0B2" stop-opacity="0.11"/>
<stop offset="0.13" stop-color="#FFF0B2" stop-opacity="0.38"/>
<stop offset="0.23" stop-color="#FFF0B2" stop-opacity="0.6"/>
<stop offset="0.31" stop-color="#FFF0B2" stop-opacity="0.77"/>
<stop offset="0.39" stop-color="#FFF0B2" stop-opacity="0.9"/>
<stop offset="0.45" stop-color="#FFF0B2" stop-opacity="0.97"/>
<stop offset="0.49" stop-color="#FFF0B2"/>
<stop offset="0.54" stop-color="#FFF0B2" stop-opacity="0.97"/>
<stop offset="0.6" stop-color="#FFF0B2" stop-opacity="0.9"/>
<stop offset="0.68" stop-color="#FFF0B2" stop-opacity="0.77"/>
<stop offset="0.77" stop-color="#FFF0B2" stop-opacity="0.6"/>
<stop offset="0.86" stop-color="#FFF0B2" stop-opacity="0.38"/>
<stop offset="0.96" stop-color="#FFF0B2" stop-opacity="0.11"/>
<stop offset="1" stop-color="#FFF0B2" stop-opacity="0"/>
</linearGradient>
</defs>
</svg>
