<svg width="113" height="127" viewBox="0 0 113 127" fill="none" xmlns="http://www.w3.org/2000/svg">
<rect width="113" height="127" fill="white" fill-opacity="0.01"/>
<path d="M111.526 60.4856L112.951 53.3111C112.987 53.1407 112.988 52.9648 112.955 52.7939C112.922 52.623 112.855 52.4606 112.759 52.3164C112.663 52.1722 112.539 52.0492 112.395 51.9547C112.25 51.8603 112.089 51.7962 111.919 51.7665L82.4412 45.8375C82.2767 45.801 82.1066 45.7977 81.9408 45.8281C81.775 45.8585 81.6168 45.9218 81.4752 46.0144C81.3337 46.107 81.2116 46.2271 81.116 46.3678C81.0204 46.5084 80.9531 46.6669 80.9182 46.834L73.1556 86.5433L71.7308 93.7677C71.6952 93.9381 71.6939 94.114 71.727 94.2849C71.76 94.4558 71.8266 94.6182 71.9229 94.7624C72.0193 94.9065 72.1432 95.0295 72.2875 95.124C72.4318 95.2185 72.5933 95.2825 72.7625 95.3122L102.241 101.241C102.409 101.277 102.582 101.279 102.751 101.245C102.919 101.212 103.079 101.144 103.222 101.046C103.364 100.949 103.485 100.823 103.578 100.677C103.671 100.53 103.735 100.367 103.764 100.195L111.526 60.4856Z" fill="url(#paint0_linear_532_3048)"/>
<path d="M87.0319 44.7661L108.575 49.0919C109.074 49.192 109.512 49.4888 109.795 49.9171C110.078 50.3453 110.181 50.8699 110.082 51.3754V51.3754L84.7802 46.2948C84.8789 45.7892 85.1716 45.3442 85.5939 45.0575C86.0161 44.7708 86.5334 44.666 87.0319 44.7661V44.7661Z" fill="url(#paint1_linear_532_3048)"/>
<path d="M96.186 43.699L100.524 44.57C100.869 44.6393 101.173 44.8448 101.368 45.1413C101.564 45.4377 101.636 45.8009 101.567 46.1509L101.281 47.6171L94.3408 46.2236L94.6271 44.7574C94.6954 44.4074 94.8981 44.0993 95.1904 43.9008C95.4828 43.7023 95.8409 43.6297 96.186 43.699Z" fill="#DFE1E5"/>
<path d="M75.1133 95.7341L100.416 100.815C100.317 101.32 100.024 101.765 99.6019 102.052C99.1796 102.339 98.6623 102.444 98.1638 102.343L76.6207 98.0177C76.1222 97.9176 75.6833 97.6207 75.4006 97.1925C75.1179 96.7643 75.0146 96.2397 75.1133 95.7341V95.7341Z" fill="#A5ADBA"/>
<path d="M85.3404 60.1369C91.973 61.233 94.1839 65.8666 100.522 67.5107C102.683 68.1086 105.926 68.4574 110.25 67.2616L111.527 60.4856L112.952 53.311C112.987 53.1407 112.989 52.9648 112.956 52.7939C112.923 52.623 112.856 52.4606 112.76 52.3164C112.663 52.1722 112.539 52.0492 112.395 51.9547C112.251 51.8603 112.089 51.7962 111.92 51.7665L85.8808 46.4852L82.4417 45.8375C82.2772 45.801 82.1071 45.7977 81.9413 45.8281C81.7755 45.8585 81.6173 45.9218 81.4757 46.0144C81.3342 46.107 81.2121 46.2271 81.1165 46.3678C81.0209 46.5084 80.9536 46.6669 80.9187 46.834L78.2656 60.4358C80.5787 59.8452 82.9869 59.7435 85.3404 60.1369V60.1369Z" fill="#42526E"/>
<path d="M105.681 90.4793L109.071 73.1407C107.159 73.387 105.371 74.2371 103.961 75.5707C102.552 76.9043 101.591 78.6538 101.216 80.5715C100.842 82.4892 101.071 84.4779 101.872 86.256C102.674 88.0342 104.006 89.5117 105.681 90.4793V90.4793Z" fill="#0052CC"/>
<path opacity="0.25" d="M109.769 51.2855L96.6602 48.6532L86.9952 98.1534L100.104 100.786L109.769 51.2855Z" fill="url(#paint2_linear_532_3048)"/>
<path d="M28.2001 46.2784L2.89783 51.3591C2.81336 50.8595 2.92469 50.3463 3.20808 49.9288C3.49148 49.5114 3.9245 49.2227 4.41479 49.1244L26.006 44.7889C26.5045 44.6888 27.0218 44.7937 27.4441 45.0803C27.8664 45.367 28.1591 45.8121 28.2578 46.3176V46.3176L28.2001 46.2784Z" fill="url(#paint3_linear_532_3048)"/>
<path d="M18.6862 46.2331L11.7943 47.6169L11.508 46.1507C11.4397 45.8007 11.5113 45.4375 11.707 45.1411C11.9027 44.8446 12.2065 44.6391 12.5516 44.5698L16.8892 43.6988C17.2343 43.6295 17.5924 43.7021 17.8848 43.9006C18.1771 44.099 18.3798 44.4072 18.4481 44.7572L18.7344 46.2234L18.6862 46.2331Z" fill="#DFE1E5"/>
<path d="M36.4739 98.0367L14.8827 102.372C14.3842 102.472 13.8669 102.367 13.4446 102.081C13.0223 101.794 12.7296 101.349 12.6309 100.844V100.844L37.9813 95.7532C38.0801 96.2587 37.9767 96.7833 37.694 97.2116C37.4113 97.6398 36.9724 97.9366 36.4739 98.0367Z" fill="#A5ADBA"/>
<path d="M1.4248 60.4858L0.049149 53.3112C0.0130823 53.1443 0.00992228 52.9718 0.0398509 52.8037C0.0697795 52.6356 0.132206 52.4751 0.223535 52.3316C0.314864 52.188 0.433293 52.0642 0.572002 51.9672C0.710712 51.8703 0.866962 51.8021 1.03176 51.7666L30.5591 45.8377C30.7237 45.8011 30.8938 45.7979 31.0596 45.8282C31.2253 45.8586 31.3836 45.9219 31.5251 46.0145C31.6667 46.1071 31.7888 46.2272 31.8844 46.3679C31.98 46.5085 32.0472 46.667 32.0822 46.8341L39.8448 86.5434L41.2696 93.7678C41.3279 94.1106 41.253 94.4629 41.0606 94.7509C40.8682 95.0389 40.5734 95.2401 40.2378 95.3124L10.7596 101.241C10.5886 101.278 10.4122 101.28 10.2405 101.247C10.0688 101.214 9.90518 101.147 9.75909 101.05C9.613 100.952 9.48729 100.827 9.38919 100.68C9.29108 100.533 9.22251 100.369 9.18741 100.195L1.4248 60.4858Z" fill="url(#paint4_linear_532_3048)"/>
<path d="M1.03176 51.7666C0.866962 51.8021 0.710712 51.8703 0.572002 51.9672C0.433293 52.0642 0.314864 52.188 0.223535 52.3316C0.132206 52.4751 0.0697795 52.6356 0.0398509 52.8037C0.00992228 52.9718 0.0130823 53.1443 0.049149 53.3112L1.4248 60.4857L2.75132 67.2617C7.0748 68.4575 10.2683 68.1087 12.4791 67.5109C18.817 65.8667 20.9787 61.2331 27.6113 60.137C29.9812 59.7424 32.4056 59.8441 34.7352 60.4359L32.0822 46.8341C32.0472 46.667 31.98 46.5085 31.8844 46.3679C31.7888 46.2272 31.6667 46.1071 31.5251 46.0145C31.3836 45.9219 31.2253 45.8586 31.0596 45.8282C30.8938 45.7979 30.7237 45.8011 30.5591 45.8377L27.12 46.4854L1.03176 51.7666Z" fill="#42526E"/>
<path d="M11.9379 82.408C11.934 80.1424 11.1205 77.955 9.648 76.251C8.17554 74.5471 6.14398 73.4421 3.92969 73.1409L7.31969 90.4794C8.7213 89.6646 9.88627 88.4894 10.6971 87.0723C11.5079 85.6553 11.9359 84.0464 11.9379 82.408V82.408Z" fill="#0052CC"/>
<path opacity="0.25" d="M12.9301 100.804L26.0391 98.172L16.3741 48.6718L3.26512 51.3041L12.9301 100.804Z" fill="url(#paint5_linear_532_3048)"/>
<path d="M40.0921 23.7657H73.599C74.3678 23.7657 75.1051 24.0755 75.6487 24.6267C76.1923 25.178 76.4977 25.9257 76.4977 26.7053V26.7053H37.1934C37.1934 25.9257 37.4988 25.178 38.0424 24.6267C38.586 24.0755 39.3233 23.7657 40.0921 23.7657V23.7657Z" fill="url(#paint6_linear_532_3048)"/>
<path d="M53.5033 19.4312H60.2341C60.7553 19.4312 61.2552 19.6412 61.6237 20.0149C61.9923 20.3886 62.1993 20.8956 62.1993 21.4241V23.716H51.4889V21.4739C51.4822 21.2038 51.5297 20.9351 51.6285 20.6842C51.7273 20.4333 51.8755 20.2053 52.0639 20.0143C52.2523 19.8232 52.477 19.673 52.7245 19.5727C52.9719 19.4725 53.2369 19.4243 53.5033 19.4312V19.4312Z" fill="url(#paint7_linear_532_3048)"/>
<path d="M37.1934 103.633H76.4977C76.4977 104.019 76.4227 104.401 76.2771 104.758C76.1314 105.114 75.9179 105.438 75.6487 105.711C75.3795 105.984 75.06 106.201 74.7083 106.349C74.3566 106.496 73.9797 106.572 73.599 106.572H40.0921C39.3233 106.572 38.586 106.263 38.0424 105.711C37.4988 105.16 37.1934 104.412 37.1934 103.633V103.633V103.633Z" fill="#A5ADBA"/>
<path d="M81.4101 39.9086V28.6983C81.4101 28.4323 81.3577 28.169 81.2559 27.9239C81.1541 27.6788 81.0049 27.4569 80.8172 27.2711C80.6295 27.0854 80.407 26.9397 80.1629 26.8425C79.9187 26.7453 79.6579 26.6987 79.3957 26.7053H33.557C33.0358 26.7053 32.5359 26.9153 32.1674 27.2891C31.7988 27.6628 31.5918 28.1697 31.5918 28.6983V101.64C31.5918 102.168 31.7988 102.675 32.1674 103.049C32.5359 103.423 33.0358 103.633 33.557 103.633H79.3957C79.6579 103.639 79.9187 103.593 80.1629 103.496C80.407 103.398 80.6295 103.253 80.8172 103.067C81.0049 102.881 81.1541 102.659 81.2559 102.414C81.3577 102.169 81.4101 101.906 81.4101 101.64V39.9086Z" fill="url(#paint8_linear_532_3048)"/>
<path d="M79.3957 26.7053H33.557C33.0358 26.7053 32.5359 26.9153 32.1674 27.2891C31.7988 27.6628 31.5918 28.1697 31.5918 28.6983V45.4888H81.4101V28.6983C81.4101 28.4323 81.3577 28.169 81.2559 27.9239C81.1541 27.6788 81.0049 27.4569 80.8172 27.2711C80.6295 27.0854 80.407 26.9397 80.1629 26.8425C79.9187 26.7453 79.6579 26.6987 79.3957 26.7053V26.7053Z" fill="url(#paint9_linear_532_3048)"/>
<path d="M56.3535 6.67639H61.7579L56.3535 15.7443V6.67639Z" fill="#FFAB00"/>
<path d="M58.3672 9.06787H52.9629L58.3672 0V9.06787Z" fill="#FFAB00"/>
<path d="M67.2598 11.2601L70.5516 12.4559L65.3438 16.7905L67.2598 11.2601Z" fill="#FFAB00"/>
<path d="M67.9968 13.1534L64.7051 12.0075L69.9129 7.67285L67.9968 13.1534Z" fill="#FFAB00"/>
<path d="M46.4298 12.157L49.6724 11.011L44.5137 6.67639L46.4298 12.157Z" fill="#FFAB00"/>
<path d="M47.1179 10.2637L43.8262 11.4594L49.034 15.7941L47.1179 10.2637Z" fill="#FFAB00"/>
<path d="M58.0235 120.324H52.6191L58.0235 111.256V120.324Z" fill="#FFAB00"/>
<path d="M56.0098 117.932H61.4632L56.0098 127V117.932Z" fill="#FFAB00"/>
<path d="M47.1179 115.74L43.8262 114.544L49.034 110.209L47.1179 115.74Z" fill="#FFAB00"/>
<path d="M46.4298 113.847L49.6724 115.042L44.5137 119.377L46.4298 113.847Z" fill="#FFAB00"/>
<path d="M67.9968 114.843L64.7051 116.039L69.9129 120.373L67.9968 114.843Z" fill="#FFAB00"/>
<path d="M67.2598 116.736L70.5516 115.541L65.3438 111.206L67.2598 116.736Z" fill="#FFAB00"/>
<path d="M56.944 86.643C64.1888 86.643 70.0618 80.6871 70.0618 73.3401C70.0618 65.9931 64.1888 60.0372 56.944 60.0372C49.6992 60.0372 43.8262 65.9931 43.8262 73.3401C43.8262 80.6871 49.6992 86.643 56.944 86.643Z" fill="#0052CC"/>
<path opacity="0.9" d="M49.608 79L51.4 67.72H56.04C57.288 67.72 58.1893 67.9707 58.744 68.472C59.3093 68.9627 59.592 69.6027 59.592 70.392C59.592 71.1173 59.384 71.7307 58.968 72.232C58.5627 72.7227 58.0187 73.064 57.336 73.256C57.88 73.448 58.3013 73.752 58.6 74.168C58.8987 74.584 59.048 75.0747 59.048 75.64C59.048 76.7387 58.6853 77.576 57.96 78.152C57.2347 78.7173 56.232 79 54.952 79H49.608ZM52.616 72.504H55.352C56.0667 72.504 56.6213 72.344 57.016 72.024C57.4107 71.704 57.608 71.24 57.608 70.632C57.608 70.1947 57.4533 69.8587 57.144 69.624C56.8453 69.3893 56.3707 69.272 55.72 69.272H53.128L52.616 72.504ZM51.816 77.448H54.856C55.592 77.448 56.1413 77.2827 56.504 76.952C56.8773 76.6213 57.064 76.1467 57.064 75.528C57.064 75.0373 56.8987 74.6693 56.568 74.424C56.248 74.1787 55.7787 74.056 55.16 74.056H52.36L51.816 77.448ZM60.6236 79L62.4156 67.72H64.4636L62.6716 79H60.6236Z" fill="white"/>
<path opacity="0.3" d="M77.7751 26.7053H60.6777V103.633H77.7751V26.7053Z" fill="url(#paint10_linear_532_3048)"/>
<defs>
<linearGradient id="paint0_linear_532_3048" x1="71.716" y1="73.5294" x2="113" y2="73.5294" gradientUnits="userSpaceOnUse">
<stop stop-color="#FF991F"/>
<stop offset="0.28" stop-color="#FFAA13"/>
<stop offset="0.71" stop-color="#FFBD05"/>
<stop offset="1" stop-color="#FFC400"/>
</linearGradient>
<linearGradient id="paint1_linear_532_3048" x1="84.7777" y1="48.0669" x2="110.109" y2="48.0669" gradientUnits="userSpaceOnUse">
<stop stop-color="#A5ADBA"/>
<stop offset="0.41" stop-color="#C5C9D2"/>
<stop offset="0.76" stop-color="#D8DBE0"/>
<stop offset="1" stop-color="#DFE1E5"/>
</linearGradient>
<linearGradient id="paint2_linear_532_3048" x1="91.1686" y1="73.2343" x2="104.27" y2="75.7924" gradientUnits="userSpaceOnUse">
<stop stop-color="#FFF0B2" stop-opacity="0"/>
<stop offset="0.06" stop-color="#FFF0B2" stop-opacity="0.12"/>
<stop offset="0.27" stop-color="#FFF0B2" stop-opacity="0.59"/>
<stop offset="0.42" stop-color="#FFF0B2" stop-opacity="0.88"/>
<stop offset="0.49" stop-color="#FFF0B2"/>
<stop offset="0.54" stop-color="#FFF0B2" stop-opacity="0.95"/>
<stop offset="0.63" stop-color="#FFF0B2" stop-opacity="0.8"/>
<stop offset="0.74" stop-color="#FFF0B2" stop-opacity="0.57"/>
<stop offset="0.89" stop-color="#FFF0B2" stop-opacity="0.26"/>
<stop offset="1" stop-color="#FFF0B2" stop-opacity="0"/>
</linearGradient>
<linearGradient id="paint3_linear_532_3048" x1="153.922" y1="234.255" x2="1486.37" y2="234.255" gradientUnits="userSpaceOnUse">
<stop stop-color="#A5ADBA"/>
<stop offset="0.41" stop-color="#C5C9D2"/>
<stop offset="0.76" stop-color="#D8DBE0"/>
<stop offset="1" stop-color="#DFE1E5"/>
</linearGradient>
<linearGradient id="paint4_linear_532_3048" x1="-159030" y1="8230.96" x2="-162498" y2="8230.96" gradientUnits="userSpaceOnUse">
<stop stop-color="#FF991F"/>
<stop offset="0.28" stop-color="#FFAA13"/>
<stop offset="0.71" stop-color="#FFBD05"/>
<stop offset="1" stop-color="#FFC400"/>
</linearGradient>
<linearGradient id="paint5_linear_532_3048" x1="-74876.4" y1="-22965.8" x2="-75232.8" y2="-22896.2" gradientUnits="userSpaceOnUse">
<stop stop-color="#FFF0B2" stop-opacity="0"/>
<stop offset="0.06" stop-color="#FFF0B2" stop-opacity="0.12"/>
<stop offset="0.27" stop-color="#FFF0B2" stop-opacity="0.59"/>
<stop offset="0.42" stop-color="#FFF0B2" stop-opacity="0.88"/>
<stop offset="0.49" stop-color="#FFF0B2"/>
<stop offset="0.54" stop-color="#FFF0B2" stop-opacity="0.95"/>
<stop offset="0.63" stop-color="#FFF0B2" stop-opacity="0.8"/>
<stop offset="0.74" stop-color="#FFF0B2" stop-opacity="0.57"/>
<stop offset="0.89" stop-color="#FFF0B2" stop-opacity="0.26"/>
<stop offset="1" stop-color="#FFF0B2" stop-opacity="0"/>
</linearGradient>
<linearGradient id="paint6_linear_532_3048" x1="3012.53" y1="172.656" x2="6158.06" y2="172.656" gradientUnits="userSpaceOnUse">
<stop stop-color="#A5ADBA"/>
<stop offset="0.41" stop-color="#C5C9D2"/>
<stop offset="0.76" stop-color="#D8DBE0"/>
<stop offset="1" stop-color="#DFE1E5"/>
</linearGradient>
<linearGradient id="paint7_linear_532_3048" x1="1174.33" y1="205.248" x2="1407.51" y2="205.248" gradientUnits="userSpaceOnUse">
<stop stop-color="#A5ADBA"/>
<stop offset="0.41" stop-color="#C5C9D2"/>
<stop offset="0.76" stop-color="#D8DBE0"/>
<stop offset="1" stop-color="#DFE1E5"/>
</linearGradient>
<linearGradient id="paint8_linear_532_3048" x1="2633.1" y1="14917" x2="11444.6" y2="9210.33" gradientUnits="userSpaceOnUse">
<stop stop-color="#FF991F"/>
<stop offset="0.28" stop-color="#FFAA13"/>
<stop offset="0.71" stop-color="#FFBD05"/>
<stop offset="1" stop-color="#FFC400"/>
</linearGradient>
<linearGradient id="paint9_linear_532_3048" x1="28.4376" y1="36.102" x2="83.4195" y2="36.102" gradientUnits="userSpaceOnUse">
<stop stop-color="#253858"/>
<stop offset="0.07" stop-color="#283B5A"/>
<stop offset="0.62" stop-color="#3B4C69"/>
<stop offset="1" stop-color="#42526E"/>
</linearGradient>
<linearGradient id="paint10_linear_532_3048" x1="60.7023" y1="65.169" x2="77.7997" y2="65.169" gradientUnits="userSpaceOnUse">
<stop stop-color="#FFF0B2" stop-opacity="0"/>
<stop offset="0.04" stop-color="#FFF0B2" stop-opacity="0.11"/>
<stop offset="0.13" stop-color="#FFF0B2" stop-opacity="0.38"/>
<stop offset="0.23" stop-color="#FFF0B2" stop-opacity="0.6"/>
<stop offset="0.31" stop-color="#FFF0B2" stop-opacity="0.77"/>
<stop offset="0.39" stop-color="#FFF0B2" stop-opacity="0.9"/>
<stop offset="0.45" stop-color="#FFF0B2" stop-opacity="0.97"/>
<stop offset="0.49" stop-color="#FFF0B2"/>
<stop offset="0.54" stop-color="#FFF0B2" stop-opacity="0.97"/>
<stop offset="0.6" stop-color="#FFF0B2" stop-opacity="0.9"/>
<stop offset="0.68" stop-color="#FFF0B2" stop-opacity="0.77"/>
<stop offset="0.77" stop-color="#FFF0B2" stop-opacity="0.6"/>
<stop offset="0.86" stop-color="#FFF0B2" stop-opacity="0.38"/>
<stop offset="0.96" stop-color="#FFF0B2" stop-opacity="0.11"/>
<stop offset="1" stop-color="#FFF0B2" stop-opacity="0"/>
</linearGradient>
</defs>
</svg>
