<svg width="290" height="153" viewBox="0 0 290 153" fill="none" xmlns="http://www.w3.org/2000/svg">
<rect width="290" height="93" fill="white" fill-opacity="0.01"/>
<mask id="mask0_515_363" style="mask-type:alpha" maskUnits="userSpaceOnUse" x="0" y="0" width="290" height="93">
<rect width="290" height="93" fill="white"/>
</mask>
<g mask="url(#mask0_515_363)">
<g clip-path="url(#clip0_515_363)">
<rect width="290" height="135.875" fill="white" fill-opacity="0.01"/>
<path d="M290 0H0V135.875H290V0Z" fill="#00C7E5"/>
<path opacity="0.7" d="M0 76.1152H290V29.7541C274.624 32.1319 261.03 32.5848 249.309 32.1193C200.493 30.1693 164.288 11.4487 119.096 0H0V76.1152Z" fill="url(#paint0_linear_515_363)"/>
<path opacity="0.6" d="M0 133.484H290V56.4002C243.328 41.5295 201.746 23.5889 140.152 45.6183C96.999 61.0552 53.0307 92.8852 1.01198 71.9378C0.679688 71.7994 0.332292 71.661 0 71.5226V133.484Z" fill="url(#paint1_linear_515_363)"/>
<path opacity="0.6" d="M290 82.9336C224.977 101.126 172.837 131.974 85.0667 129.144C51.3542 128.062 22.3089 122.325 0 116.248V135.875H290V82.9336Z" fill="url(#paint2_linear_515_363)"/>
</g>
</g>
<rect width="113" height="127" transform="translate(88 26)" fill="white" fill-opacity="0.01"/>
<path d="M199.526 86.4858L200.951 79.3112C200.987 79.1408 200.988 78.9649 200.955 78.794C200.922 78.6231 200.855 78.4607 200.759 78.3165C200.663 78.1723 200.539 78.0493 200.395 77.9549C200.25 77.8604 200.089 77.7964 199.919 77.7666L170.441 71.8377C170.277 71.8011 170.107 71.7979 169.941 71.8282C169.775 71.8586 169.617 71.9219 169.475 72.0145C169.334 72.1071 169.212 72.2272 169.116 72.3679C169.02 72.5085 168.953 72.667 168.918 72.8341L161.156 112.543L159.731 119.768C159.695 119.938 159.694 120.114 159.727 120.285C159.76 120.456 159.827 120.618 159.923 120.762C160.019 120.907 160.143 121.03 160.287 121.124C160.432 121.219 160.593 121.283 160.763 121.312L190.241 127.241C190.409 127.277 190.582 127.279 190.751 127.245C190.919 127.212 191.079 127.144 191.222 127.046C191.364 126.949 191.485 126.823 191.578 126.677C191.671 126.53 191.735 126.367 191.764 126.195L199.526 86.4858Z" fill="url(#paint3_linear_515_363)"/>
<path d="M175.032 70.7661L196.575 75.0919C197.074 75.192 197.512 75.4888 197.795 75.9171C198.078 76.3453 198.181 76.8699 198.082 77.3754L172.78 72.2948C172.879 71.7892 173.172 71.3442 173.594 71.0575C174.016 70.7708 174.533 70.666 175.032 70.7661Z" fill="url(#paint4_linear_515_363)"/>
<path d="M184.184 69.6988L188.522 70.5698C188.867 70.6391 189.171 70.8445 189.366 71.141C189.562 71.4375 189.634 71.8007 189.565 72.1507L189.279 73.6169L182.339 72.2234L182.625 70.7571C182.693 70.4071 182.896 70.099 183.188 69.9005C183.481 69.7021 183.839 69.6295 184.184 69.6988Z" fill="#DFE1E5"/>
<path d="M163.113 121.734L188.416 126.815C188.317 127.321 188.024 127.766 187.602 128.052C187.18 128.339 186.662 128.444 186.164 128.344L164.621 124.018C164.122 123.918 163.683 123.621 163.401 123.193C163.118 122.765 163.015 122.24 163.113 121.734Z" fill="#A5ADBA"/>
<path d="M173.34 86.137C179.973 87.2331 182.184 91.8667 188.522 93.5109C190.683 94.1087 193.926 94.4575 198.25 93.2617L199.527 86.4858L200.952 79.3112C200.987 79.1408 200.989 78.9649 200.956 78.794C200.923 78.6231 200.856 78.4607 200.76 78.3165C200.663 78.1723 200.539 78.0493 200.395 77.9549C200.251 77.8604 200.089 77.7964 199.92 77.7666L173.881 72.4854L170.442 71.8377C170.277 71.8011 170.107 71.7979 169.941 71.8282C169.776 71.8586 169.617 71.9219 169.476 72.0145C169.334 72.1071 169.212 72.2272 169.116 72.3679C169.021 72.5085 168.954 72.667 168.919 72.8341L166.266 86.4359C168.579 85.8453 170.987 85.7436 173.34 86.137Z" fill="#42526E"/>
<path d="M193.679 116.479L197.069 99.1406C195.157 99.3869 193.369 100.237 191.959 101.571C190.55 102.904 189.589 104.654 189.215 106.571C188.84 108.489 189.069 110.478 189.87 112.256C190.672 114.034 192.004 115.512 193.679 116.479Z" fill="#0052CC"/>
<path opacity="0.25" d="M197.769 77.2856L184.66 74.6533L174.995 124.153L188.104 126.786L197.769 77.2856Z" fill="url(#paint5_linear_515_363)"/>
<path d="M116.2 72.2782L90.8978 77.3588C90.8134 76.8593 90.9247 76.3461 91.2081 75.9286C91.4915 75.5111 91.9245 75.2225 92.4148 75.1242L114.006 70.7887C114.505 70.6886 115.022 70.7934 115.444 71.0801C115.866 71.3668 116.159 71.8119 116.258 72.3174L116.2 72.2782Z" fill="url(#paint6_linear_515_363)"/>
<path d="M106.686 72.2333L99.7943 73.6172L99.508 72.1509C99.4397 71.801 99.5113 71.4378 99.707 71.1413C99.9027 70.8448 100.207 70.6393 100.552 70.57L104.889 69.6991C105.234 69.6298 105.592 69.7023 105.885 69.9008C106.177 70.0993 106.38 70.4074 106.448 70.7574L106.734 72.2236L106.686 72.2333Z" fill="#DFE1E5"/>
<path d="M124.472 124.037L102.881 128.372C102.382 128.472 101.865 128.367 101.443 128.081C101.02 127.794 100.728 127.349 100.629 126.843L125.979 121.753C126.078 122.259 125.975 122.783 125.692 123.211C125.409 123.64 124.97 123.937 124.472 124.037Z" fill="#A5ADBA"/>
<path d="M89.4248 86.4858L88.0491 79.3112C88.0131 79.1443 88.0099 78.9718 88.0399 78.8037C88.0698 78.6356 88.1322 78.4751 88.2235 78.3316C88.3149 78.188 88.4333 78.0642 88.572 77.9672C88.7107 77.8703 88.867 77.8021 89.0318 77.7666L118.559 71.8377C118.724 71.8011 118.894 71.7979 119.06 71.8282C119.225 71.8586 119.384 71.9219 119.525 72.0145C119.667 72.1071 119.789 72.2272 119.884 72.3679C119.98 72.5085 120.047 72.667 120.082 72.8341L127.845 112.543L129.27 119.768C129.328 120.111 129.253 120.463 129.061 120.751C128.868 121.039 128.573 121.24 128.238 121.312L98.7596 127.241C98.5886 127.278 98.4122 127.28 98.2405 127.247C98.0688 127.214 97.9052 127.147 97.7591 127.05C97.613 126.952 97.4873 126.827 97.3892 126.68C97.2911 126.533 97.2225 126.369 97.1874 126.195L89.4248 86.4858Z" fill="url(#paint7_linear_515_363)"/>
<path d="M89.0318 77.7666C88.867 77.8021 88.7107 77.8703 88.572 77.9672C88.4333 78.0642 88.3149 78.188 88.2235 78.3316C88.1322 78.4751 88.0698 78.6356 88.0399 78.8037C88.0099 78.9718 88.0131 79.1443 88.0491 79.3112L89.4248 86.4858L90.7513 93.2617C95.0748 94.4575 98.2683 94.1087 100.479 93.5109C106.817 91.8667 108.979 87.2331 115.611 86.137C117.981 85.7424 120.406 85.8441 122.735 86.4359L120.082 72.8341C120.047 72.667 119.98 72.5085 119.884 72.3679C119.789 72.2272 119.667 72.1071 119.525 72.0145C119.384 71.9219 119.225 71.8586 119.06 71.8282C118.894 71.7979 118.724 71.8011 118.559 71.8377L115.12 72.4854L89.0318 77.7666Z" fill="#42526E"/>
<path d="M99.9379 108.408C99.934 106.142 99.1205 103.955 97.648 102.251C96.1755 100.547 94.144 99.4419 91.9297 99.1406L95.3197 116.479C96.7213 115.664 97.8863 114.489 98.6971 113.072C99.5079 111.655 99.9359 110.046 99.9379 108.408Z" fill="#0052CC"/>
<path opacity="0.25" d="M100.93 126.804L114.039 124.172L104.374 74.6717L91.2651 77.304L100.93 126.804Z" fill="url(#paint8_linear_515_363)"/>
<path d="M128.094 49.7656H161.601C162.37 49.7656 163.107 50.0753 163.651 50.6266C164.194 51.1779 164.5 51.9256 164.5 52.7052H125.195C125.195 51.9256 125.501 51.1779 126.044 50.6266C126.588 50.0753 127.325 49.7656 128.094 49.7656Z" fill="url(#paint9_linear_515_363)"/>
<path d="M141.507 45.4313H148.238C148.759 45.4313 149.259 45.6413 149.628 46.015C149.996 46.3888 150.203 46.8957 150.203 47.4242V49.7161H139.493V47.4741C139.486 47.2039 139.534 46.9352 139.632 46.6843C139.731 46.4334 139.879 46.2055 140.068 46.0144C140.256 45.8233 140.481 45.6731 140.728 45.5729C140.976 45.4726 141.241 45.4245 141.507 45.4313Z" fill="url(#paint10_linear_515_363)"/>
<path d="M125.195 129.633H164.5C164.5 130.019 164.425 130.401 164.279 130.758C164.133 131.114 163.92 131.438 163.651 131.711C163.381 131.984 163.062 132.201 162.71 132.349C162.359 132.496 161.982 132.572 161.601 132.572H128.094C127.325 132.572 126.588 132.263 126.044 131.711C125.501 131.16 125.195 130.412 125.195 129.633Z" fill="#A5ADBA"/>
<path d="M169.412 65.9089V54.6986C169.412 54.4327 169.36 54.1694 169.258 53.9243C169.156 53.6792 169.007 53.4572 168.819 53.2715C168.631 53.0858 168.409 52.94 168.165 52.8429C167.921 52.7457 167.66 52.6991 167.398 52.7057H121.559C121.038 52.7057 120.538 52.9157 120.169 53.2894C119.801 53.6632 119.594 54.1701 119.594 54.6986V127.64C119.594 128.169 119.801 128.676 120.169 129.049C120.538 129.423 121.038 129.633 121.559 129.633H167.398C167.66 129.64 167.921 129.593 168.165 129.496C168.409 129.399 168.631 129.253 168.819 129.067C169.007 128.882 169.156 128.66 169.258 128.415C169.36 128.169 169.412 127.906 169.412 127.64V65.9089Z" fill="url(#paint11_linear_515_363)"/>
<path d="M167.398 52.7057H121.559C121.038 52.7057 120.538 52.9157 120.169 53.2894C119.801 53.6632 119.594 54.1701 119.594 54.6986V71.4891H169.412V54.6986C169.412 54.4327 169.36 54.1694 169.258 53.9243C169.156 53.6792 169.007 53.4572 168.819 53.2715C168.631 53.0858 168.409 52.94 168.165 52.8429C167.921 52.7457 167.66 52.6991 167.398 52.7057Z" fill="url(#paint12_linear_515_363)"/>
<path d="M144.355 32.6768H149.76L144.355 41.7446V32.6768Z" fill="#FFAB00"/>
<path d="M146.369 35.0679H140.965L146.369 26V35.0679Z" fill="#FFAB00"/>
<path d="M155.26 37.2598L158.552 38.4555L153.344 42.7902L155.26 37.2598Z" fill="#FFAB00"/>
<path d="M155.999 39.1534L152.707 38.0075L157.915 33.6729L155.999 39.1534Z" fill="#FFAB00"/>
<path d="M134.432 38.1573L137.674 37.0114L132.516 32.6768L134.432 38.1573Z" fill="#FFAB00"/>
<path d="M135.12 36.2637L131.828 37.4594L137.036 41.7941L135.12 36.2637Z" fill="#FFAB00"/>
<path d="M146.025 146.324H140.621L146.025 137.256V146.324Z" fill="#FFAB00"/>
<path d="M144.012 143.933H149.465L144.012 153V143.933Z" fill="#FFAB00"/>
<path d="M135.12 141.739L131.828 140.544L137.036 136.209L135.12 141.739Z" fill="#FFAB00"/>
<path d="M134.432 139.846L137.674 141.041L132.516 145.376L134.432 139.846Z" fill="#FFAB00"/>
<path d="M155.999 140.843L152.707 142.039L157.915 146.373L155.999 140.843Z" fill="#FFAB00"/>
<path d="M155.264 142.736L158.555 141.541L153.348 137.206L155.264 142.736Z" fill="#FFAB00"/>
<path d="M144.946 112.643C152.191 112.643 158.064 106.687 158.064 99.34C158.064 91.993 152.191 86.0371 144.946 86.0371C137.701 86.0371 131.828 91.993 131.828 99.34C131.828 106.687 137.701 112.643 144.946 112.643Z" fill="#0052CC"/>
<path opacity="0.9" d="M137.608 105L139.4 93.72H144.04C145.288 93.72 146.189 93.9707 146.744 94.472C147.309 94.9627 147.592 95.6027 147.592 96.392C147.592 97.1173 147.384 97.7307 146.968 98.232C146.563 98.7227 146.019 99.064 145.336 99.256C145.88 99.448 146.301 99.752 146.6 100.168C146.899 100.584 147.048 101.075 147.048 101.64C147.048 102.739 146.685 103.576 145.96 104.152C145.235 104.717 144.232 105 142.952 105H137.608ZM140.616 98.504H143.352C144.067 98.504 144.621 98.344 145.016 98.024C145.411 97.704 145.608 97.24 145.608 96.632C145.608 96.1947 145.453 95.8587 145.144 95.624C144.845 95.3893 144.371 95.272 143.72 95.272H141.128L140.616 98.504ZM139.816 103.448H142.856C143.592 103.448 144.141 103.283 144.504 102.952C144.877 102.621 145.064 102.147 145.064 101.528C145.064 101.037 144.899 100.669 144.568 100.424C144.248 100.179 143.779 100.056 143.16 100.056H140.36L139.816 103.448ZM148.624 105L150.416 93.72H152.464L150.672 105H148.624Z" fill="white"/>
<path opacity="0.3" d="M165.777 52.7051H148.68V129.632H165.777V52.7051Z" fill="url(#paint13_linear_515_363)"/>
<defs>
<linearGradient id="paint0_linear_515_363" x1="145" y1="6.22538" x2="145" y2="44.6419" gradientUnits="userSpaceOnUse">
<stop stop-color="#00A3BF"/>
<stop offset="1" stop-color="#00A3BF" stop-opacity="0"/>
</linearGradient>
<linearGradient id="paint1_linear_515_363" x1="133.976" y1="42.8674" x2="150.298" y2="154.002" gradientUnits="userSpaceOnUse">
<stop stop-color="#00A3BF"/>
<stop offset="0.1395" stop-color="#00A3BF" stop-opacity="0.8605"/>
<stop offset="1" stop-color="#00A3BF" stop-opacity="0"/>
</linearGradient>
<linearGradient id="paint2_linear_515_363" x1="145" y1="135.875" x2="145" y2="82.9318" gradientUnits="userSpaceOnUse">
<stop stop-color="#00A3BF" stop-opacity="0"/>
<stop offset="0.8605" stop-color="#00A3BF" stop-opacity="0.8605"/>
<stop offset="1" stop-color="#00A3BF"/>
</linearGradient>
<linearGradient id="paint3_linear_515_363" x1="159.716" y1="99.5295" x2="201" y2="99.5295" gradientUnits="userSpaceOnUse">
<stop stop-color="#FF991F"/>
<stop offset="0.28" stop-color="#FFAA13"/>
<stop offset="0.71" stop-color="#FFBD05"/>
<stop offset="1" stop-color="#FFC400"/>
</linearGradient>
<linearGradient id="paint4_linear_515_363" x1="172.778" y1="74.0669" x2="198.109" y2="74.0669" gradientUnits="userSpaceOnUse">
<stop stop-color="#A5ADBA"/>
<stop offset="0.41" stop-color="#C5C9D2"/>
<stop offset="0.76" stop-color="#D8DBE0"/>
<stop offset="1" stop-color="#DFE1E5"/>
</linearGradient>
<linearGradient id="paint5_linear_515_363" x1="179.169" y1="99.2344" x2="192.27" y2="101.793" gradientUnits="userSpaceOnUse">
<stop stop-color="#FFF0B2" stop-opacity="0"/>
<stop offset="0.06" stop-color="#FFF0B2" stop-opacity="0.12"/>
<stop offset="0.27" stop-color="#FFF0B2" stop-opacity="0.59"/>
<stop offset="0.42" stop-color="#FFF0B2" stop-opacity="0.88"/>
<stop offset="0.49" stop-color="#FFF0B2"/>
<stop offset="0.54" stop-color="#FFF0B2" stop-opacity="0.95"/>
<stop offset="0.63" stop-color="#FFF0B2" stop-opacity="0.8"/>
<stop offset="0.74" stop-color="#FFF0B2" stop-opacity="0.57"/>
<stop offset="0.89" stop-color="#FFF0B2" stop-opacity="0.26"/>
<stop offset="1" stop-color="#FFF0B2" stop-opacity="0"/>
</linearGradient>
<linearGradient id="paint6_linear_515_363" x1="241.922" y1="260.254" x2="1574.37" y2="260.254" gradientUnits="userSpaceOnUse">
<stop stop-color="#A5ADBA"/>
<stop offset="0.41" stop-color="#C5C9D2"/>
<stop offset="0.76" stop-color="#D8DBE0"/>
<stop offset="1" stop-color="#DFE1E5"/>
</linearGradient>
<linearGradient id="paint7_linear_515_363" x1="-158942" y1="8256.96" x2="-162410" y2="8256.96" gradientUnits="userSpaceOnUse">
<stop stop-color="#FF991F"/>
<stop offset="0.28" stop-color="#FFAA13"/>
<stop offset="0.71" stop-color="#FFBD05"/>
<stop offset="1" stop-color="#FFC400"/>
</linearGradient>
<linearGradient id="paint8_linear_515_363" x1="-74788.4" y1="-22939.8" x2="-75144.8" y2="-22870.2" gradientUnits="userSpaceOnUse">
<stop stop-color="#FFF0B2" stop-opacity="0"/>
<stop offset="0.06" stop-color="#FFF0B2" stop-opacity="0.12"/>
<stop offset="0.27" stop-color="#FFF0B2" stop-opacity="0.59"/>
<stop offset="0.42" stop-color="#FFF0B2" stop-opacity="0.88"/>
<stop offset="0.49" stop-color="#FFF0B2"/>
<stop offset="0.54" stop-color="#FFF0B2" stop-opacity="0.95"/>
<stop offset="0.63" stop-color="#FFF0B2" stop-opacity="0.8"/>
<stop offset="0.74" stop-color="#FFF0B2" stop-opacity="0.57"/>
<stop offset="0.89" stop-color="#FFF0B2" stop-opacity="0.26"/>
<stop offset="1" stop-color="#FFF0B2" stop-opacity="0"/>
</linearGradient>
<linearGradient id="paint9_linear_515_363" x1="3100.53" y1="198.655" x2="6246.06" y2="198.655" gradientUnits="userSpaceOnUse">
<stop stop-color="#A5ADBA"/>
<stop offset="0.41" stop-color="#C5C9D2"/>
<stop offset="0.76" stop-color="#D8DBE0"/>
<stop offset="1" stop-color="#DFE1E5"/>
</linearGradient>
<linearGradient id="paint10_linear_515_363" x1="1262.33" y1="231.248" x2="1495.51" y2="231.248" gradientUnits="userSpaceOnUse">
<stop stop-color="#A5ADBA"/>
<stop offset="0.41" stop-color="#C5C9D2"/>
<stop offset="0.76" stop-color="#D8DBE0"/>
<stop offset="1" stop-color="#DFE1E5"/>
</linearGradient>
<linearGradient id="paint11_linear_515_363" x1="2721.1" y1="14943" x2="11532.6" y2="9236.33" gradientUnits="userSpaceOnUse">
<stop stop-color="#FF991F"/>
<stop offset="0.28" stop-color="#FFAA13"/>
<stop offset="0.71" stop-color="#FFBD05"/>
<stop offset="1" stop-color="#FFC400"/>
</linearGradient>
<linearGradient id="paint12_linear_515_363" x1="116.44" y1="62.1024" x2="171.421" y2="62.1024" gradientUnits="userSpaceOnUse">
<stop stop-color="#253858"/>
<stop offset="0.07" stop-color="#283B5A"/>
<stop offset="0.62" stop-color="#3B4C69"/>
<stop offset="1" stop-color="#42526E"/>
</linearGradient>
<linearGradient id="paint13_linear_515_363" x1="148.704" y1="91.1688" x2="165.802" y2="91.1688" gradientUnits="userSpaceOnUse">
<stop stop-color="#FFF0B2" stop-opacity="0"/>
<stop offset="0.04" stop-color="#FFF0B2" stop-opacity="0.11"/>
<stop offset="0.13" stop-color="#FFF0B2" stop-opacity="0.38"/>
<stop offset="0.23" stop-color="#FFF0B2" stop-opacity="0.6"/>
<stop offset="0.31" stop-color="#FFF0B2" stop-opacity="0.77"/>
<stop offset="0.39" stop-color="#FFF0B2" stop-opacity="0.9"/>
<stop offset="0.45" stop-color="#FFF0B2" stop-opacity="0.97"/>
<stop offset="0.49" stop-color="#FFF0B2"/>
<stop offset="0.54" stop-color="#FFF0B2" stop-opacity="0.97"/>
<stop offset="0.6" stop-color="#FFF0B2" stop-opacity="0.9"/>
<stop offset="0.68" stop-color="#FFF0B2" stop-opacity="0.77"/>
<stop offset="0.77" stop-color="#FFF0B2" stop-opacity="0.6"/>
<stop offset="0.86" stop-color="#FFF0B2" stop-opacity="0.38"/>
<stop offset="0.96" stop-color="#FFF0B2" stop-opacity="0.11"/>
<stop offset="1" stop-color="#FFF0B2" stop-opacity="0"/>
</linearGradient>
<clipPath id="clip0_515_363">
<rect width="290" height="135.875" fill="white"/>
</clipPath>
</defs>
</svg>
