<svg width="16" height="15" viewBox="0 0 16 15" fill="none" xmlns="http://www.w3.org/2000/svg">
<path d="M10.5 3.08333H8.16667V1.91667C8.16667 1.26917 7.6475 0.75 7 0.75H4.66667C4.01917 0.75 3.5 1.26917 3.5 1.91667V3.08333H1.16667C0.519167 3.08333 0.00583333 3.6025 0.00583333 4.25L0 10.6667C0 11.3142 0.519167 11.8333 1.16667 11.8333H10.5C11.1475 11.8333 11.6667 11.3142 11.6667 10.6667V4.25C11.6667 3.6025 11.1475 3.08333 10.5 3.08333ZM7 3.08333H4.66667V1.91667H7V3.08333Z" fill="#1B364A"/>
<path d="M14.4749 7.77513L14.4749 7.77512C13.8145 7.11472 12.9339 6.75 12 6.75C11.0661 6.75 10.1855 7.11472 9.52512 7.77512C8.86472 8.43552 8.5 9.31607 8.5 10.25C8.5 11.1839 8.86474 12.0645 9.52511 12.7249C10.1855 13.3853 11.0661 13.75 12 13.75C12.9339 13.75 13.8145 13.3853 14.4749 12.7249C15.1353 12.0645 15.5 11.1839 15.5 10.25C15.5 9.31606 15.1353 8.43553 14.4749 7.77513Z" fill="#1B364A" stroke="white"/>
</svg>
