<svg width="1830" height="1214" viewBox="0 0 1830 1214" fill="none" xmlns="http://www.w3.org/2000/svg">
<path d="M1829.73 808.806C1829.77 818.284 1829.48 827.68 1828.87 836.988C1825.17 893.5 1809.65 946.34 1781.51 990.24C1659.35 1180.8 1482.07 1100.33 1296.41 1128.84C1124.57 1155.22 1059.01 1201.98 877.597 1201.15C727.425 1200.47 502.962 1111.26 404.55 1128.84C320.185 1143.9 78.9991 1132.34 27.9231 1026.39C2.62409 973.924 -7.82691 895.418 9.66109 836.988C12.6701 826.92 16.5131 817.443 21.2561 808.806C29.0371 794.608 39.2451 782.659 52.1671 774.008C129.073 722.496 137.732 694.572 91.1921 499.11C47.6611 316.267 278.512 171.513 395.335 196.302C516.03 221.91 597.385 116.458 754.063 122.484C1022.63 132.814 1130.75 342.827 1269.29 324.359C1622.93 277.205 1828.98 567.629 1829.73 808.806Z" fill="#F2B1BB"/>
<path d="M1829.73 808.806C1829.77 818.284 1829.48 827.68 1828.87 836.988H9.66109C12.6701 826.92 16.5131 817.443 21.2561 808.806H1829.73Z" fill="#E88E9B"/>
<path d="M1496.02 987.224C1510.29 1003.63 1444.05 1064.06 1222.59 1059.54C1117.78 1057.4 999.126 1082.89 847.289 1082.89C734.071 1082.89 623.217 1067 533.357 1064.06C257.664 1055.02 261.677 1022.14 255.404 996.264C237.326 921.691 585.566 922.344 909.432 922.344C1233.3 922.344 1450.83 935.249 1496.02 987.224Z" fill="#D97C89"/>
<mask id="mask0_554_2054" style="mask-type:alpha" maskUnits="userSpaceOnUse" x="876" y="167" width="350" height="351">
<path d="M1051.11 517.407C1147.68 517.407 1225.97 439.117 1225.97 342.543C1225.97 245.968 1147.68 167.679 1051.11 167.679C954.533 167.679 876.244 245.968 876.244 342.543C876.244 439.117 954.533 517.407 1051.11 517.407Z" fill="url(#paint0_radial_554_2054)"/>
</mask>
<g mask="url(#mask0_554_2054)">
<path d="M1051.11 517.407C1147.68 517.407 1225.97 439.117 1225.97 342.543C1225.97 245.968 1147.68 167.679 1051.11 167.679C954.533 167.679 876.244 245.968 876.244 342.543C876.244 439.117 954.533 517.407 1051.11 517.407Z" fill="url(#paint1_radial_554_2054)"/>
<path d="M1161.25 400.032C1167.62 400.032 1168.34 409.105 1161.88 409.105C1155.51 409.104 1154.8 400.032 1161.25 400.032Z" fill="white"/>
<path d="M1103.5 400.032C1109.87 400.032 1110.59 409.105 1104.13 409.105C1097.76 409.104 1097.04 400.032 1103.5 400.032Z" fill="white"/>
<path d="M1045.74 400.032C1052.12 400.032 1052.83 409.105 1046.38 409.105C1040.01 409.104 1039.29 400.032 1045.74 400.032Z" fill="white"/>
<path opacity="0.3" d="M1252.95 198.989H1049.76C1037.54 198.989 1027.64 208.893 1027.64 221.11V364.394C1027.64 376.611 1037.54 386.515 1049.76 386.515H1252.95C1265.16 386.515 1275.07 376.611 1275.07 364.394V221.11C1275.07 208.893 1265.16 198.989 1252.95 198.989Z" fill="#6D82FF"/>
<path d="M958.241 374.314V305.24C958.241 280.593 978.291 260.543 1002.94 260.543H1168.12C1192.77 260.543 1212.82 280.593 1212.82 305.24V382.974C1212.82 407.621 1192.77 427.672 1168.12 427.672H999.491C962.573 442.479 907.338 465.095 906.783 465.325L901.063 467.666L958.241 374.314ZM1002.94 264.588C980.523 264.588 962.287 282.825 962.287 305.24V375.455L910.97 459.24C926.163 453.027 968.399 435.782 998.348 423.772L998.709 423.626H1168.12C1190.54 423.626 1208.77 405.389 1208.77 382.974V305.24C1208.77 282.825 1190.54 264.588 1168.12 264.588H1002.94Z" fill="white"/>
</g>
<path d="M1565.89 489.01C1565.34 489.098 1564.78 488.901 1564.48 488.494C1564.14 488.022 1564.24 487.394 1564.73 486.982L1593.79 462.225C1594.14 461.925 1594.65 461.793 1595.12 461.872C1595.59 461.954 1595.97 462.239 1596.12 462.628L1601.35 476.132C1601.59 476.754 1601.18 477.451 1600.45 477.694L1566.15 488.947C1566.06 488.975 1565.98 488.997 1565.89 489.01ZM1594.11 465.287L1571.32 484.698L1598.21 475.875L1594.11 465.287Z" fill="#2E3192"/>
<path d="M1623.61 547.851C1623.42 547.881 1623.22 547.879 1623.03 547.841C1622.56 547.747 1622.18 547.443 1622.05 547.041L1604.06 492.288C1603.86 491.67 1604.27 490.998 1605 490.769L1738.52 448.898C1739.15 448.7 1739.84 448.894 1740.17 449.369C1740.51 449.844 1740.4 450.472 1739.91 450.878L1624.39 547.504C1624.17 547.687 1623.9 547.805 1623.61 547.851ZM1607.16 492.632L1624.17 544.382L1733.36 453.055L1607.16 492.632Z" fill="#2E3192"/>
<path d="M1600.05 478.045C1599.36 478.154 1598.71 477.824 1598.5 477.262L1579 422.896C1578.85 422.485 1578.98 422.028 1579.33 421.696C1579.68 421.364 1580.21 421.211 1580.7 421.298L1738.62 448.032C1739.26 448.142 1739.71 448.627 1739.69 449.198C1739.67 449.769 1739.18 450.269 1738.53 450.401L1600.12 478.033C1600.09 478.038 1600.07 478.042 1600.05 478.045ZM1582.44 424.087L1600.86 475.425L1731.55 449.333L1582.44 424.087Z" fill="#2E3192"/>
<path d="M1605.62 493.096C1605.48 493.118 1605.33 493.123 1605.19 493.108L1565.46 489.021C1564.82 488.956 1564.34 488.526 1564.29 487.978C1564.23 487.43 1564.62 486.902 1565.24 486.694C1568.4 485.621 1596.23 476.206 1599.67 475.663C1599.68 475.662 1599.68 475.661 1599.69 475.659C1603.21 475.102 1736.67 448.313 1738.02 448.042C1738.74 447.859 1739.47 448.252 1739.65 448.864C1739.83 449.474 1739.42 450.124 1738.71 450.354L1605.87 493.036C1605.79 493.063 1605.7 493.082 1605.62 493.096ZM1571.4 487.175L1605.32 490.664L1717.52 454.617C1679.37 462.268 1602.83 477.606 1600.06 478.044C1600.05 478.045 1600.04 478.046 1600.04 478.047C1597.98 478.373 1583.3 483.18 1571.4 487.175Z" fill="#2E3192"/>
<path d="M759.691 139.865L738.677 109.635L711.229 106.923C695.938 105.412 684.727 91.7435 686.238 76.4535L691.309 25.1275C692.82 9.83649 706.489 -1.37454 721.779 0.136463L819.11 9.75249C834.401 11.2635 845.612 24.9325 844.101 40.2225L839.03 91.5485C837.519 106.839 823.85 118.05 808.56 116.539L782.293 113.944L759.691 139.865ZM721.559 2.3695C707.5 0.980496 694.932 11.2885 693.543 25.3475L688.472 76.6745C687.083 90.7335 697.391 103.301 711.45 104.69L739.929 107.504L759.891 136.221L781.362 111.597L808.781 114.306C822.84 115.695 835.408 105.387 836.797 91.3285L841.868 40.0025C843.257 25.9435 832.949 13.3755 818.89 11.9865L721.559 2.3695Z" fill="#0E4A75"/>
<path d="M799.782 50.4283C794.759 25.2553 772.029 34.5624 767.029 36.9474C761.765 33.1464 742.282 21.1643 732.746 44.1073C725.14 62.4053 761.972 90.4593 761.972 90.4593L762.121 89.2403L762.051 90.1653C762.05 90.1653 803.659 69.8603 799.782 50.4283Z" fill="#0E4A75"/>
<path d="M1735.77 1058.42C1734.83 1058.42 1733.93 1058.04 1733.26 1057.36C1730.58 1054.62 1667.86 989.76 1689.08 954.359C1697.52 940.279 1707.89 932.345 1719.91 930.779C1737.9 928.441 1754.38 941.136 1761.92 948.112C1770.79 945.652 1792.64 941.261 1808.1 952.077C1818.12 959.083 1823.62 971.014 1824.46 987.538C1826.45 1026.54 1749.72 1053.5 1738.34 1057.28C1737.89 1057.77 1737.31 1058.13 1736.64 1058.3C1736.35 1058.38 1736.06 1058.42 1735.77 1058.42ZM1736.4 1049.08C1736.68 1049.08 1736.97 1049.11 1737.25 1049.19C1737.74 1049.31 1738.17 1049.52 1738.54 1049.81C1745.56 1047.34 1761.76 1041.27 1777.63 1032.55C1796.32 1022.29 1818.4 1006.21 1817.47 987.892C1816.74 973.636 1812.24 963.516 1804.09 957.812C1789.91 947.89 1768.29 953.442 1762.01 955.379C1760.79 955.756 1759.45 955.436 1758.54 954.543C1752.61 948.778 1737.06 935.597 1720.81 937.72C1711.03 938.995 1702.37 945.805 1695.08 957.958C1685.64 973.704 1697.62 998.309 1709.32 1016.18C1718.98 1030.93 1730.06 1043.58 1735.27 1049.27C1735.63 1049.15 1736.01 1049.08 1736.4 1049.08Z" fill="#2E3192"/>
<path d="M512.895 1213.23C512.803 1213.18 512.715 1213.12 512.632 1213.05C512.21 1212.7 511.943 1212.2 511.889 1211.65L502.938 1119.91C502.828 1118.78 503.657 1117.77 504.789 1117.66L629.036 1105.54C630.168 1105.43 631.177 1106.26 631.288 1107.39L640.24 1199.13C640.35 1200.26 639.522 1201.27 638.389 1201.38L514.141 1213.51C513.704 1213.55 513.268 1213.45 512.895 1213.23ZM507.24 1121.56L515.791 1209.2L635.937 1197.48L627.385 1109.84L507.24 1121.56Z" fill="#0E4A75"/>
<path d="M512.895 1213.23C512.346 1212.91 511.954 1212.34 511.888 1211.65L509.373 1185.89C509.323 1185.37 509.471 1184.85 509.791 1184.43L532.117 1155.39C532.481 1154.92 533.035 1154.63 533.632 1154.59C534.228 1154.56 534.812 1154.78 535.229 1155.21L556.584 1177.22C557.376 1178.03 557.357 1179.34 556.54 1180.13C555.725 1180.92 554.42 1180.91 553.627 1180.09L533.932 1159.79L513.555 1186.3L515.99 1211.25C516.1 1212.39 515.272 1213.39 514.138 1213.5C513.689 1213.55 513.258 1213.44 512.895 1213.23Z" fill="#0E4A75"/>
<path d="M637.143 1201.11C636.594 1200.79 636.202 1200.21 636.136 1199.53L631.458 1151.58L615.345 1134.15L601.385 1154.72C600.745 1155.66 599.484 1155.89 598.522 1155.26C597.58 1154.63 597.335 1153.34 597.974 1152.4L613.392 1129.69C613.745 1129.17 614.316 1128.84 614.943 1128.79C615.571 1128.75 616.186 1128.99 616.61 1129.45L634.954 1149.3C635.259 1149.63 635.448 1150.05 635.491 1150.49L640.237 1199.13C640.347 1200.27 639.519 1201.27 638.386 1201.38C637.937 1201.43 637.505 1201.32 637.143 1201.11Z" fill="#0E4A75"/>
<path d="M540.072 1149.21C536.452 1147.08 533.862 1143.31 533.423 1138.82C532.696 1131.36 538.169 1124.71 545.623 1123.98C553.076 1123.25 559.733 1128.72 560.461 1136.18C561.188 1143.63 555.715 1150.29 548.261 1151.01C545.299 1151.3 542.461 1150.61 540.072 1149.21ZM551.728 1129.34C550.064 1128.36 548.088 1127.88 546.023 1128.08C540.831 1128.59 537.019 1133.22 537.525 1138.42C538.033 1143.61 542.669 1147.42 547.861 1146.91C553.053 1146.41 556.865 1141.77 556.359 1136.58C556.054 1133.45 554.25 1130.82 551.728 1129.34Z" fill="#0E4A75"/>
<path d="M536.44 1210.93C536.167 1210.77 535.93 1210.55 535.753 1210.27C535.335 1209.62 535.315 1208.8 535.701 1208.13L579 1133.17C579.323 1132.61 579.889 1132.23 580.528 1132.15C581.169 1132.07 581.81 1132.3 582.259 1132.76L638.978 1190.88C639.305 1191.22 639.509 1191.65 639.554 1192.12L640.239 1199.13C640.349 1200.27 639.521 1201.27 638.388 1201.39L537.686 1211.21C537.244 1211.25 536.809 1211.15 536.44 1210.93ZM581.208 1137.58L541.274 1206.72L635.936 1197.48L635.522 1193.24L581.208 1137.58Z" fill="#0E4A75"/>
<path d="M48.0351 728.354C47.7881 728.286 47.5541 728.177 47.3421 728.032C34.0311 725.346 24.5311 713.324 25.0901 699.657C25.3931 692.239 28.5681 685.382 34.0281 680.351C38.9761 675.792 45.2661 673.225 51.9241 673.011C55.4181 648.847 76.7331 630.976 101.371 631.983C123.209 632.88 141.826 648.702 146.346 669.911C163.389 670.798 176.629 685.29 175.93 702.382C175.267 718.585 162.197 731.628 146.064 732.307C145.839 732.372 145.604 732.405 145.368 732.395L48.5651 728.435C48.3841 728.43 48.2061 728.401 48.0351 728.354ZM110.89 638.18C107.768 637.313 104.516 636.791 101.18 636.655C78.2961 635.719 58.5901 652.822 56.3161 675.593C56.1921 676.834 55.1151 677.76 53.8691 677.694C47.6371 677.437 41.7371 679.603 37.1951 683.788C32.6531 687.974 30.0131 693.677 29.7601 699.848C29.2841 711.483 37.5791 721.693 49.0511 723.593C49.2841 723.633 49.5061 723.704 49.7071 723.805L144.995 727.703C145.129 727.674 145.267 727.657 145.408 727.653C159.335 727.306 170.69 716.122 171.26 702.191C171.858 687.556 160.435 675.163 145.804 674.565C145.344 674.546 144.886 674.539 144.43 674.544C143.281 674.557 142.297 673.731 142.104 672.6C139.25 655.89 126.762 642.586 110.89 638.18Z" fill="#2E3192"/>
<path d="M390.934 720.55H332.152L326.314 668.809H396.772L390.934 720.55Z" fill="#C84F38"/>
<path d="M367.663 671.123C367.663 671.123 359.52 609.709 416.522 590.708C410.415 594.101 383.949 644.997 383.61 669.087C376.485 674.516 367.663 671.123 367.663 671.123Z" fill="#446E21"/>
<path d="M369.164 649.083C369.164 649.083 371.579 587.179 313.06 573.544C319.456 576.356 350.525 624.579 353.097 648.534C360.695 653.279 369.164 649.083 369.164 649.083Z" fill="#446E21"/>
<path d="M363.579 667.935C363.579 667.935 360.208 606.075 300.672 597.96C307.302 600.163 342.735 645.277 347.53 668.888C355.538 672.904 363.579 667.935 363.579 667.935Z" fill="#294214"/>
<path d="M370.075 669.688C370.075 669.688 401.21 616.129 355.899 576.667C360.232 582.148 365.088 639.307 356.137 661.675C360.626 669.427 370.075 669.688 370.075 669.688Z" fill="#294214"/>
<path d="M393.321 677.557H329.765C325.988 677.557 322.927 674.495 322.927 670.718C322.927 666.941 325.988 663.88 329.765 663.88H393.321C397.098 663.88 400.16 666.941 400.16 670.718C400.16 674.496 397.098 677.557 393.321 677.557Z" fill="#B04631"/>
<path d="M784.864 182.153L780.23 183.256L787.28 212.883L791.914 211.78L784.864 182.153Z" fill="white"/>
<path d="M800.333 191.676L770.707 198.727L771.81 203.361L801.436 196.311L800.333 191.676Z" fill="white"/>
<path d="M832.721 1126.32L828.087 1127.42L835.137 1157.05L839.772 1155.94L832.721 1126.32Z" fill="white"/>
<path d="M848.192 1135.84L818.565 1142.89L819.668 1147.52L849.295 1140.47L848.192 1135.84Z" fill="white"/>
<path d="M1576.82 1020.73L1572.19 1021.83L1579.24 1051.46L1583.87 1050.35L1576.82 1020.73Z" fill="white"/>
<path d="M1592.29 1030.25L1562.66 1037.3L1563.77 1041.93L1593.39 1034.88L1592.29 1030.25Z" fill="white"/>
<path d="M283.021 543.6L261.909 546.642L262.385 549.945L283.497 546.903L283.021 543.6Z" fill="white"/>
<path d="M272.79 536.002L269.487 536.478L272.529 557.59L275.832 557.114L272.79 536.002Z" fill="white"/>
<path d="M131.775 910.744L127.141 911.847L134.191 941.474L138.826 940.371L131.775 910.744Z" fill="white"/>
<path d="M147.238 920.269L117.611 927.32L118.714 931.954L148.341 924.904L147.238 920.269Z" fill="white"/>
<path d="M1692.19 683.133L1687.55 684.236L1694.6 713.863L1699.24 712.76L1692.19 683.133Z" fill="white"/>
<path d="M1707.65 692.666L1678.03 699.717L1679.13 704.351L1708.76 697.301L1707.65 692.666Z" fill="white"/>
<path d="M1116.14 543.713L1111.51 544.816L1118.56 574.442L1123.19 573.34L1116.14 543.713Z" fill="white"/>
<path d="M1131.63 553.201L1102.01 560.251L1103.11 564.886L1132.74 557.836L1131.63 553.201Z" fill="white"/>
<path d="M327.298 264.095C327.298 258.694 331.692 254.3 337.093 254.3C342.494 254.3 346.887 258.694 346.887 264.095C346.887 269.496 342.493 273.889 337.093 273.889C331.692 273.889 327.298 269.496 327.298 264.095ZM329.224 264.095C329.224 268.434 332.754 271.964 337.093 271.964C341.432 271.964 344.961 268.434 344.961 264.095C344.961 259.756 341.431 256.226 337.093 256.226C332.754 256.226 329.224 259.756 329.224 264.095Z" fill="#00A872"/>
<path d="M1559.75 707.983C1559.75 702.102 1564.54 697.318 1570.42 697.318C1576.3 697.318 1581.08 702.102 1581.08 707.983C1581.08 713.864 1576.3 718.649 1570.42 718.649C1564.54 718.649 1559.75 713.864 1559.75 707.983ZM1563.42 707.983C1563.42 711.842 1566.56 714.981 1570.42 714.981C1574.28 714.981 1577.42 711.842 1577.42 707.983C1577.42 704.125 1574.28 700.985 1570.42 700.985C1566.56 700.985 1563.42 704.125 1563.42 707.983Z" fill="#446E21"/>
<path d="M1026.62 1124.85C1026.62 1118.97 1031.41 1114.19 1037.29 1114.19C1043.17 1114.19 1047.95 1118.97 1047.95 1124.85C1047.95 1130.73 1043.17 1135.52 1037.29 1135.52C1031.41 1135.52 1026.62 1130.73 1026.62 1124.85ZM1030.29 1124.85C1030.29 1128.71 1033.43 1131.85 1037.29 1131.85C1041.15 1131.85 1044.29 1128.71 1044.29 1124.85C1044.29 1120.99 1041.15 1117.85 1037.29 1117.85C1033.43 1117.85 1030.29 1120.99 1030.29 1124.85Z" fill="#446E21"/>
<path d="M667.894 1114.74C667.894 1108.86 672.678 1104.08 678.559 1104.08C684.44 1104.08 689.224 1108.86 689.224 1114.74C689.224 1120.62 684.44 1125.41 678.559 1125.41C672.678 1125.41 667.894 1120.62 667.894 1114.74ZM671.561 1114.74C671.561 1118.6 674.7 1121.74 678.559 1121.74C682.418 1121.74 685.557 1118.6 685.557 1114.74C685.557 1110.88 682.418 1107.75 678.559 1107.75C674.7 1107.75 671.561 1110.89 671.561 1114.74Z" fill="#FFC159"/>
<path d="M1005.26 550.363L1002.63 550.989L1006.63 567.809L1009.27 567.183L1005.26 550.363Z" fill="#00A872"/>
<path d="M1014.04 555.77L997.225 559.772L997.851 562.404L1014.67 558.401L1014.04 555.77Z" fill="#00A872"/>
<path d="M708.491 1045.98C901.314 1045.98 1057.63 1032.81 1057.63 1016.57C1057.63 1000.33 901.314 987.162 708.491 987.162C515.669 987.162 359.355 1000.33 359.355 1016.57C359.355 1032.81 515.669 1045.98 708.491 1045.98Z" fill="#666666"/>
<path d="M1320.51 881.769C1368.77 881.769 1407.89 875.009 1407.89 866.672C1407.89 858.334 1368.77 851.575 1320.51 851.575C1272.26 851.575 1233.14 858.334 1233.14 866.672C1233.14 875.009 1272.26 881.769 1320.51 881.769Z" fill="#666666"/>
<path d="M546.212 856.444C559.148 892.362 592.671 980.975 616.118 1006.92L931.278 1008.1C931.278 1008.1 984.262 953.607 998.822 929.904C1075.64 804.956 1051.37 739.872 996.757 707.155C994.808 705.983 992.824 704.859 990.794 703.768C926.15 669.045 825.345 675.135 793.302 681.249C792.919 681.319 792.525 681.401 792.131 681.482C686.198 702.84 641.741 371.64 555.658 421.7C547.931 426.19 541.133 436.122 535.332 450.252C503.368 528.179 501.999 733.618 546.212 856.444Z" fill="#FF8C00"/>
<path d="M535.33 450.252C535.574 466.877 537.627 486.111 542.047 508.363C573.556 666.886 574.868 723.199 623.223 768.759C650.22 794.201 839.95 844.611 932.472 786.534C985.677 753.145 990.306 727.482 990.793 703.768C926.149 669.046 825.344 675.136 793.301 681.25C792.918 681.32 792.524 681.401 792.13 681.482C686.197 702.84 641.74 371.641 555.657 421.701C547.929 426.19 541.13 436.122 535.33 450.252Z" fill="#D67600"/>
<path d="M803.401 816.699C790.822 816.699 778.257 815.836 765.791 814.088C698.685 804.682 645.221 786.567 627.091 773.536C607.448 759.419 584.071 714.257 570.239 663.71C554.108 604.755 534.044 451.981 533.843 450.445C533.736 449.624 534.315 448.871 535.136 448.763C535.954 448.653 536.71 449.234 536.818 450.056C537.018 451.59 557.056 604.16 573.134 662.918C586.799 712.861 609.707 757.347 628.841 771.1C646.237 783.603 700.292 801.876 766.207 811.117C778.531 812.845 790.969 813.699 803.404 813.699C852.378 813.701 901.46 800.461 944.745 775.171C995.974 745.239 989.388 704.439 989.316 704.029C989.17 703.213 989.715 702.435 990.531 702.291C991.343 702.147 992.125 702.69 992.269 703.506C992.348 703.948 994.139 714.519 989.343 729.035C984.944 742.35 973.899 761.611 946.258 777.761C902.518 803.317 852.899 816.698 803.401 816.699Z" fill="white"/>
<path d="M897.54 595.298C884.465 586.676 880.855 569.087 889.477 556.012C898.099 542.937 915.688 539.326 928.763 547.949C941.838 556.571 945.448 574.16 936.826 587.235C928.205 600.31 910.616 603.92 897.54 595.298Z" fill="#F8A887"/>
<path d="M714.1 410.602C700.287 416.861 694.255 433.204 700.691 446.936L746.025 543.669L748.253 548.365C749.79 551.422 751.704 554.293 753.932 556.883C758.385 562.07 764.106 566.122 770.452 568.593C772.038 569.21 773.66 569.73 775.306 570.154C776.127 570.369 776.959 570.537 777.79 570.708L779.048 570.931L783.203 571.631L791.514 573.031L824.757 578.632L891.242 589.834L899.484 546.742L833.557 532.619L800.594 525.558L792.353 523.792L788.232 522.909L787.717 522.799C787.594 522.771 787.236 522.701 787.423 522.727C787.571 522.737 787.71 522.779 787.856 522.804C788.145 522.861 788.433 522.941 788.714 523.039C789.844 523.424 790.879 524.087 791.713 524.978C792.13 525.423 792.497 525.926 792.795 526.463C793.122 527.149 792.593 525.946 792.381 525.419L791.57 523.474L750.445 424.909C744.533 410.743 728.082 404.266 714.1 410.602Z" fill="#0F6F80"/>
<path d="M897.767 546.038L898.312 543.303L792.558 522.249C789.323 514.805 760.428 448.279 759.698 446.45C757.178 440.136 749.499 440.525 749.176 440.543L749.344 443.326C749.593 443.309 755.341 443.053 757.107 447.484C757.891 449.451 788.968 520.985 790.29 524.029L790.58 524.699L897.767 546.038Z" fill="white"/>
<path d="M619.079 681.086C745.264 657.389 737.895 700.601 792.499 681.399C762.531 608.623 749.777 558.828 754.134 449.966C755.345 419.697 735.372 393.708 706.067 392.062C685.629 391.204 665.191 390.346 644.754 389.488C615.525 387.83 587.546 417.541 585.47 455.717C580.273 550.244 590.643 520.245 619.079 681.086Z" fill="#10788A"/>
<path d="M643.226 394.746C641.986 404.598 672.694 423.961 693.878 425.574C715.062 427.187 718.7 410.438 719.94 400.586C721.18 390.733 705.013 381.439 683.829 379.827C662.645 378.214 644.466 384.893 643.226 394.746Z" fill="white"/>
<path d="M848.691 967.035L834.855 999.482C834.855 999.482 832.365 1004.18 824.849 1004.18C817.333 1004.18 814.376 1000.81 813.368 999.305C812.36 997.804 818.505 972.238 818.505 972.238L848.691 967.035Z" fill="white"/>
<path d="M885.099 1023.5H841.716C840.313 1022.98 838.856 1022.46 837.185 1022.04C835.243 1021.57 827.954 1021.24 827.954 1021.24L828.073 1023.5H809.618C808.738 1017.94 809.807 1000.64 809.807 999.378C809.807 997.888 811.546 997.515 812.198 997.888C812.85 998.261 819.091 1003.11 824.587 1003.11C830.083 1003.11 834.275 997.702 835.765 997.516C837.256 997.33 841.603 999.876 841.603 999.876C841.603 999.876 877.374 1017.26 881.845 1018.75C885.661 1020.03 885.052 1022.02 885.099 1023.5Z" fill="#92532A"/>
<path d="M809.618 1023.5C809.395 1022.09 809.298 1019.94 809.276 1017.48C814.94 1017.53 823.452 1017.42 827.052 1017.42C831.426 1017.42 838.442 1020.72 842.321 1020.72C845.191 1020.72 871.325 1020.72 884.73 1020.72C885.255 1021.66 885.073 1022.66 885.1 1023.5H841.717C840.314 1022.98 838.857 1022.45 837.186 1022.04C835.244 1021.56 827.955 1021.24 827.955 1021.24L828.074 1023.5H809.618V1023.5Z" fill="#09161C"/>
<path d="M961.558 963.737L982.743 996.145C982.743 996.145 977.272 1000.89 969.756 1000.89C962.24 1000.89 959.283 997.508 958.275 996.007C957.267 994.506 931.373 968.94 931.373 968.94L961.558 963.737Z" fill="white"/>
<path d="M1030.01 1020.21H986.623C985.22 1019.68 983.764 1019.16 982.092 1018.75C980.151 1018.27 972.861 1017.94 972.861 1017.94L972.98 1020.21H954.525C953.645 1014.64 954.713 997.343 954.713 996.081C954.713 994.591 956.452 994.218 957.104 994.591C957.756 994.964 963.997 999.808 969.494 999.808C974.99 999.808 979.182 994.405 980.672 994.219C982.163 994.033 986.51 996.579 986.51 996.579C986.51 996.579 1022.28 1013.97 1026.75 1015.46C1030.57 1016.73 1029.96 1018.72 1030.01 1020.21Z" fill="#92532A"/>
<path d="M954.525 1020.21C954.302 1018.8 954.205 1016.64 954.182 1014.18C959.846 1014.23 968.358 1014.12 971.958 1014.12C976.333 1014.12 983.348 1017.42 987.227 1017.42C990.097 1017.42 1016.23 1017.42 1029.64 1017.42C1030.16 1018.37 1029.98 1019.37 1030.01 1020.21H986.623C985.22 1019.68 983.764 1019.16 982.092 1018.75C980.151 1018.27 972.861 1017.94 972.861 1017.94L972.98 1020.21H954.525Z" fill="#09161C"/>
<path d="M810.837 975.071C816.366 902.078 848.474 785.952 860.627 774.537C805.784 765.107 778.068 750.991 707.349 750.991C636.63 750.991 630.311 671.507 630.311 671.507C630.311 671.507 939.399 632.02 955.275 709.818C963.902 752.094 890.699 911.606 857.373 975.071H810.837Z" fill="#211913"/>
<path d="M616.153 670.323C616.153 670.323 869.195 657.792 881.52 735.589C888.221 777.89 938.07 910.553 973.048 973.968H931.635C786.046 841.186 806.471 802.892 808.828 772.858C766.25 763.428 716.665 772.162 667.064 748.623C614.636 723.74 616.153 670.323 616.153 670.323Z" fill="#33261D"/>
<path d="M649.45 315.661C649.45 315.661 656.246 381.887 653.087 394.173C663.155 407.716 700.048 408.282 712.162 405.525C714.662 392.73 713.867 345.324 711.812 343.215C709.757 341.106 678.188 322.034 678.188 322.034L649.45 315.661Z" fill="#F8A887"/>
<path opacity="0.35" d="M656.426 368.799C652.398 363.358 652.326 346.988 651.257 336.434L678.215 342.413C678.215 342.413 711.45 359.128 713.505 361.238C714.808 362.576 713.095 384.021 712.865 401.418C692.835 397.255 664.489 379.69 656.426 368.799Z" fill="#F8A887"/>
<path d="M650.871 300.116C650.871 300.116 649.891 340.703 659.851 351.738C669.811 362.773 707.626 387.5 727.591 380.102C747.556 372.704 740.517 286.768 737.438 277.183C734.359 267.599 718.36 252.959 699.67 251.544C680.98 250.129 667.743 245.882 662.782 256.977C657.821 268.072 650.871 300.116 650.871 300.116Z" fill="#F8A887"/>
<path d="M661.451 310.544C661.451 312.876 676.098 332.052 678.196 333.451C680.295 334.85 729.184 337.647 735.48 337.88C741.776 338.113 741.39 326.689 741.39 326.689C741.39 326.689 760.978 385.219 723.201 387.085C685.425 388.95 652.55 358.232 652.55 351.003C652.55 343.774 661.451 310.544 661.451 310.544Z" fill="#0C144F"/>
<path d="M661.502 333.972L667.041 325.317C667.041 325.317 664.618 288.277 669.464 272.353C673.964 273.738 713.428 287.931 738.006 275.815C762.584 263.699 752.199 237.736 742.852 231.159C733.506 224.582 682.272 223.889 677.772 225.966C673.272 228.043 665.31 235.313 664.272 234.967C663.233 234.621 648.002 243.621 639.694 251.237C631.386 258.853 641.425 324.279 641.425 324.279L661.502 333.972Z" fill="#0C144F"/>
<path d="M657.189 321.444C662.643 328.259 662.993 337.042 657.971 341.061C652.949 345.079 644.457 342.812 639.003 335.997C633.549 329.182 633.199 320.399 638.221 316.38C643.243 312.361 651.736 314.628 657.189 321.444Z" fill="#F8A887"/>
<path d="M709.751 344.417C710.621 346.743 714.525 355.777 723.502 355.881C733.846 356.001 735.657 345.895 736.157 344.724L709.751 344.417Z" fill="white"/>
<path d="M798.087 615.869C813.538 613.304 823.983 598.699 821.418 583.248C818.852 567.797 804.247 557.351 788.796 559.917C773.346 562.482 762.9 577.087 765.465 592.538C768.031 607.989 782.636 618.435 798.087 615.869Z" fill="#F8A887"/>
<path d="M610.86 408.394C596.508 413.293 588.93 428.979 594.012 443.267L629.815 543.918L631.58 548.807C632.815 551.998 634.444 555.04 636.412 557.833C640.344 563.425 645.649 568.009 651.727 571.08C653.246 571.847 654.811 572.521 656.408 573.101C657.205 573.394 658.017 573.642 658.827 573.892L660.057 574.235L664.126 575.332L672.263 577.526L704.811 586.303L769.908 603.858L782.263 561.761L718.003 541.352L685.873 531.147L677.84 528.596L673.824 527.32L673.322 527.161C673.202 527.121 672.852 527.017 673.036 527.061C673.182 527.085 673.317 527.14 673.46 527.18C673.742 527.265 674.02 527.372 674.291 527.497C675.379 527.99 676.345 528.749 677.089 529.717C677.461 530.2 677.778 530.736 678.023 531.299C678.282 532.013 677.872 530.765 677.712 530.219L677.092 528.205L645.654 426.137C641.139 411.467 625.388 403.435 610.86 408.394Z" fill="#12879C"/>
<path d="M780.625 560.895L781.431 558.226L678.196 527.081C675.694 519.359 653.342 450.36 652.791 448.469C650.89 441.937 643.215 441.586 642.889 441.574L642.789 444.361C643.029 444.371 648.781 444.662 650.115 449.247C650.706 451.28 674.745 525.476 675.769 528.634L675.993 529.328L780.625 560.895Z" fill="white"/>
<path d="M638.615 565.683L639.651 563.095C639.735 563.128 639.78 563.162 639.78 563.162C635.008 559.466 602.639 468.266 601.127 462.679C601.054 461.609 603.565 456.412 605.965 452.268L603.55 450.871C601.399 454.587 597.87 461.152 598.424 463.363C598.663 464.32 632.551 563.257 638.615 565.683Z" fill="white"/>
<path d="M757.136 677.596H931.902L981.536 555.979C984.324 549.148 979.778 541.427 972.967 541.427H818.789C815.089 541.427 811.734 543.815 810.22 547.526L757.136 677.596Z" fill="url(#paint2_linear_554_2054)"/>
<path d="M769.325 677.501H662.209V664.091C662.209 662.68 663.353 661.536 664.764 661.536H769.325V677.501Z" fill="url(#paint3_linear_554_2054)"/>
<path d="M767.878 677.596H942.644L992.278 555.979C995.066 549.148 990.52 541.427 983.709 541.427H829.531C825.831 541.427 822.476 543.815 820.962 547.526L767.878 677.596Z" fill="white"/>
<path d="M819.806 546.955C821.522 542.75 825.339 540.033 829.532 540.033H983.711C987.341 540.033 990.686 542.033 992.659 545.383C994.632 548.733 994.922 552.908 993.436 556.55L943.466 678.99H765.92L819.806 546.955ZM991.122 555.409C992.255 552.633 992.033 549.452 990.529 546.899C989.026 544.346 986.477 542.822 983.71 542.822H829.531C826.337 542.822 823.427 544.893 822.119 548.096L769.837 676.203H941.823L991.122 555.409Z" fill="#515CD4"/>
<path d="M871.475 612.07C873.514 603.783 882.449 597.065 891.432 597.065C900.416 597.065 906.045 603.783 904.006 612.07C901.967 620.357 893.032 627.075 884.049 627.075C875.066 627.075 869.436 620.357 871.475 612.07Z" fill="url(#paint4_linear_554_2054)"/>
<path d="M973.049 974.968C972.678 974.968 972.321 974.761 972.149 974.406C971.387 972.838 895.859 816.944 887.639 757.052C884.008 730.6 866.711 705.707 845.577 696.518C825.488 687.785 792.307 682.521 791.974 682.469C791.429 682.383 791.056 681.871 791.141 681.326C791.227 680.781 791.731 680.416 792.285 680.493C792.62 680.546 826.054 685.849 846.374 694.684C868.462 704.288 885.841 729.243 889.621 756.781C897.798 816.36 973.187 971.967 973.948 973.531C974.189 974.028 973.982 974.627 973.486 974.868C973.344 974.935 973.196 974.968 973.049 974.968Z" fill="white"/>
<path d="M512.01 761.675H474.859V1016.5H512.01V761.675Z" fill="#313745"/>
<path d="M615.639 1016.5H371.231L372.509 1016.05C411.35 1002.33 452.242 995.321 493.434 995.321C534.626 995.321 575.518 1002.33 614.359 1016.05L615.639 1016.5Z" fill="#313745"/>
<path d="M641.067 782.481H345.803L318.412 735.545H668.458L641.067 782.481Z" fill="url(#paint5_linear_554_2054)"/>
<path d="M681.905 754.372H304.965C303.387 754.372 302.107 753.093 302.107 751.514V723.637C302.107 722.059 303.386 720.779 304.965 720.779H681.906C683.484 720.779 684.764 722.058 684.764 723.637V751.514C684.763 753.093 683.483 754.372 681.905 754.372Z" fill="url(#paint6_linear_554_2054)"/>
<path d="M544.065 666.542C544.065 666.542 552.928 716.617 577.744 716.617C602.56 716.617 602.56 716.617 602.56 716.617C602.56 716.617 614.968 684.268 622.945 666.542C594.584 666.542 544.065 666.542 544.065 666.542Z" fill="url(#paint7_linear_554_2054)"/>
<path d="M603.699 710.646C601.749 710.646 600.168 709.065 600.168 707.115C600.168 705.165 601.749 703.584 603.699 703.584C614.487 703.584 621.268 699.742 623.854 692.167C625.456 687.475 625.232 683.185 623.238 680.399C621.787 678.369 619.459 677.297 616.506 677.297C614.556 677.297 612.975 675.716 612.975 673.766C612.975 671.816 614.556 670.235 616.506 670.235C621.759 670.235 626.19 672.385 628.982 676.291C632.319 680.955 632.886 687.575 630.537 694.451C626.972 704.893 617.44 710.646 603.699 710.646Z" fill="url(#paint8_linear_554_2054)"/>
<path d="M531.548 709.057C532.2 709.22 538.286 713.232 543.566 716.766C548.775 720.252 554.898 722.113 561.166 722.113H626.336C629.909 722.113 633.357 720.801 636.026 718.425L646.552 709.057H531.548Z" fill="url(#paint9_linear_554_2054)"/>
<path d="M627.375 723.595C626.949 723.595 626.528 723.564 626.115 723.498C625.348 723.376 624.825 722.657 624.948 721.889C625.07 721.122 625.803 720.601 626.557 720.722C631.618 721.527 639.163 714.896 643.395 710.461H531.548C530.772 710.461 530.143 709.832 530.143 709.056C530.143 708.28 530.772 707.651 531.548 707.651H646.551C647.098 707.651 647.594 707.968 647.825 708.463C648.054 708.958 647.978 709.541 647.627 709.96C647.139 710.542 636.073 723.595 627.375 723.595Z" fill="white"/>
<path d="M1329.97 778.601C1329.97 778.601 1298.74 642.825 1228.21 621.876C1251.95 640.031 1295.25 767.817 1300.83 779.688C1306.42 791.559 1329.97 778.601 1329.97 778.601Z" fill="#32511A"/>
<g opacity="0.5">
<path opacity="0.5" d="M1294.37 723.784C1294.37 723.784 1306.92 731.94 1318.13 739.412C1319.87 744.296 1321.4 748.899 1322.75 753.12L1298.32 736.62C1298.32 736.62 1294.46 744.599 1290.48 752.606C1288.84 748.228 1287.06 743.482 1285.16 738.477L1294.37 723.784Z" fill="white"/>
<path opacity="0.5" d="M1285.48 694.163C1285.48 694.163 1295.11 700.419 1305.03 706.992C1307.34 712.026 1309.49 717.015 1311.47 721.879L1289.43 706.999C1289.43 706.999 1284.65 716.874 1280.25 725.677C1278.45 721.03 1276.58 716.255 1274.66 711.426L1285.48 694.163Z" fill="white"/>
<path opacity="0.5" d="M1267.49 662.07C1267.49 662.07 1275.85 666.139 1285.28 670.816C1288.3 675.404 1291.15 680.136 1293.85 684.936L1272.99 674.322C1272.99 674.322 1269.9 683.409 1266.81 692.176C1264.7 687.128 1262.56 682.124 1260.41 677.242L1267.49 662.07Z" fill="white"/>
<path opacity="0.5" d="M1270.07 650.763L1251.62 644.373C1251.62 644.373 1250.79 648.685 1249.68 654.287C1247.15 649.239 1244.65 644.553 1242.22 640.365L1244.49 632.989C1244.49 632.989 1249.04 634.475 1255.3 636.547C1260.51 640.729 1265.43 645.527 1270.07 650.763Z" fill="white"/>
</g>
<path d="M1307.47 789.337C1307.47 789.337 1328.26 651.575 1396.99 625.31C1374.7 645.223 1341.28 775.936 1336.61 788.198C1331.94 800.461 1307.47 789.337 1307.47 789.337Z" fill="#32511A"/>
<g opacity="0.5">
<path opacity="0.5" d="M1338.79 731.966C1338.79 731.966 1326.9 741.055 1316.29 749.36C1314.93 754.362 1313.75 759.069 1312.73 763.381L1335.83 745.066C1335.83 745.066 1340.29 752.727 1344.87 760.408C1346.17 755.917 1347.58 751.049 1349.1 745.914L1338.79 731.966Z" fill="white"/>
<path opacity="0.5" d="M1345.4 701.754C1345.4 701.754 1336.28 708.726 1326.88 716.036C1324.96 721.231 1323.2 726.369 1321.6 731.371L1342.44 714.854C1342.44 714.854 1347.96 724.336 1353.01 732.779C1354.45 728.007 1355.96 723.105 1357.5 718.142L1345.4 701.754Z" fill="white"/>
<path opacity="0.5" d="M1360.89 668.382C1360.89 668.382 1352.87 673.076 1343.82 678.46C1341.16 683.264 1338.68 688.2 1336.35 693.191L1356.34 681.018C1356.34 681.018 1360.11 689.843 1363.86 698.349C1365.58 693.155 1367.34 688.002 1369.11 682.97L1360.89 668.382Z" fill="white"/>
<path opacity="0.5" d="M1357.46 657.305L1375.37 649.526C1375.37 649.526 1376.53 653.762 1378.06 659.263C1380.2 654.036 1382.33 649.174 1384.44 644.813L1381.6 637.632C1381.6 637.632 1377.18 639.461 1371.11 642.003C1366.22 646.571 1361.68 651.73 1357.46 657.305Z" fill="white"/>
</g>
<path d="M1312.03 775.744C1312.03 775.744 1412.32 679.035 1482.85 699.986C1453.05 702.236 1347.01 785.665 1335.85 792.561C1324.69 799.458 1312.03 775.744 1312.03 775.744Z" fill="#294214"/>
<g opacity="0.4">
<path opacity="0.4" d="M1371.79 749.253C1371.79 749.253 1356.82 749.236 1343.35 749.373C1339.23 752.518 1335.43 755.535 1331.99 758.337L1361.47 757.851C1361.47 757.851 1360.35 766.643 1359.31 775.523C1363.08 772.75 1367.16 769.747 1371.49 766.591L1371.79 749.253Z" fill="white"/>
<path opacity="0.4" d="M1395.4 729.287C1395.4 729.287 1383.93 729.275 1372.02 729.363C1367.34 732.319 1362.82 735.327 1358.5 738.323L1385.09 737.885C1385.09 737.885 1383.7 748.767 1382.58 758.546C1386.63 755.634 1390.8 752.655 1395.05 749.658L1395.4 729.287Z" fill="white"/>
<path opacity="0.4" d="M1428 712.221C1428 712.221 1418.78 711.068 1408.32 709.834C1403.28 712.032 1398.31 714.44 1393.43 716.989L1416.7 719.484C1416.7 719.484 1414.33 728.783 1412.13 737.812C1416.65 734.736 1421.18 731.713 1425.65 728.798L1428 712.221Z" fill="white"/>
<path opacity="0.4" d="M1432.01 701.338L1450.96 706.058C1450.96 706.058 1449.3 710.124 1447.17 715.423C1452.05 712.575 1456.7 710.013 1461.02 707.831L1463.14 700.408C1463.14 700.408 1458.52 699.17 1452.15 697.492C1445.5 698.151 1438.76 699.484 1432.01 701.338Z" fill="white"/>
</g>
<path d="M1329.55 785.35C1329.55 785.35 1244.13 675.291 1171.33 685.938C1200.51 692.428 1293.51 790.166 1303.57 798.587C1313.63 807.01 1329.55 785.35 1329.55 785.35Z" fill="#294214"/>
<g opacity="0.5">
<path opacity="0.5" d="M1274.2 750.584C1274.2 750.584 1289.02 752.708 1302.33 754.772C1305.96 758.473 1309.29 762.003 1312.29 765.267L1283.18 760.569C1283.18 760.569 1283.03 769.432 1282.79 778.369C1279.47 775.085 1275.85 771.529 1272.02 767.787L1274.2 750.584Z" fill="white"/>
<path opacity="0.5" d="M1253.69 727.446C1253.69 727.446 1265.05 729.075 1276.82 730.866C1281.03 734.461 1285.07 738.086 1288.91 741.668L1262.67 737.432C1262.67 737.432 1262.48 748.401 1262.19 758.238C1258.61 754.778 1254.9 751.233 1251.13 747.659L1253.69 727.446Z" fill="white"/>
<path opacity="0.5" d="M1223.87 705.894C1223.87 705.894 1233.16 706.072 1243.69 706.348C1248.35 709.243 1252.93 712.336 1257.39 715.557L1234.01 714.698C1234.01 714.698 1235.03 724.242 1235.91 733.493C1231.87 729.801 1227.83 726.162 1223.82 722.637L1223.87 705.894Z" fill="white"/>
<path opacity="0.5" d="M1221.45 694.548L1202.02 696.509C1202.02 696.509 1203.08 700.77 1204.43 706.319C1200.01 702.803 1195.78 699.602 1191.81 696.824L1190.77 689.174C1190.77 689.174 1195.53 688.61 1202.07 687.861C1208.56 689.465 1215.04 691.748 1221.45 694.548Z" fill="white"/>
</g>
<path d="M1386.76 778.632C1395.52 798.397 1397.59 820.414 1392.64 836.067C1384.09 863.144 1354.75 870.127 1321.28 870.127C1287.81 870.127 1258.47 863.144 1249.92 836.067C1244.98 820.413 1247.05 798.396 1255.8 778.632H1386.76Z" fill="#C84F38"/>
<path d="M1248.66 787.803H1393.9C1394.58 787.803 1395.13 787.253 1395.13 786.573V770.628C1395.13 769.949 1394.58 769.398 1393.9 769.398H1248.66C1247.98 769.398 1247.43 769.949 1247.43 770.628V786.573C1247.43 787.252 1247.98 787.803 1248.66 787.803Z" fill="#C84F38"/>
<path d="M456.008 423.91C482.704 397.215 482.704 353.933 456.008 327.237C429.313 300.541 386.03 300.541 359.335 327.237C332.639 353.933 332.639 397.215 359.335 423.91C386.03 450.606 429.313 450.606 456.008 423.91Z" fill="white"/>
<path opacity="0.8" d="M444.098 412C464.215 391.882 464.215 359.265 444.098 339.148C423.98 319.03 391.363 319.03 371.245 339.148C351.127 359.265 351.128 391.882 371.245 412C391.363 432.118 423.98 432.118 444.098 412Z" fill="white"/>
<path d="M431.906 393.713C431.643 393.713 431.378 393.636 431.146 393.475L406.923 376.675C406.563 376.425 406.349 376.015 406.349 375.577V340.214C406.349 339.476 406.947 338.878 407.685 338.878C408.423 338.878 409.021 339.476 409.021 340.214V374.878L432.669 391.28C433.275 391.701 433.426 392.533 433.005 393.139C432.746 393.513 432.329 393.713 431.906 393.713Z" fill="#515CD4"/>
<path d="M410.576 375.577C410.576 377.174 409.281 378.469 407.684 378.469C406.087 378.469 404.792 377.174 404.792 375.577C404.792 373.98 406.087 372.685 407.684 372.685C409.282 372.685 410.576 373.98 410.576 375.577Z" fill="#515CD4"/>
<defs>
<radialGradient id="paint0_radial_554_2054" cx="0" cy="0" r="1" gradientUnits="userSpaceOnUse" gradientTransform="translate(1051.11 342.543) rotate(180) scale(169.146)">
<stop stop-color="#4D4D4D"/>
<stop offset="0.7"/>
</radialGradient>
<radialGradient id="paint1_radial_554_2054" cx="0" cy="0" r="1" gradientUnits="userSpaceOnUse" gradientTransform="translate(1051.11 342.543) rotate(180) scale(169.146)">
<stop stop-color="white"/>
<stop offset="0.7" stop-color="white"/>
</radialGradient>
<linearGradient id="paint2_linear_554_2054" x1="964.989" y1="707.629" x2="901.285" y2="643.925" gradientUnits="userSpaceOnUse">
<stop stop-color="#7382FB"/>
<stop offset="1" stop-color="#515CD4"/>
</linearGradient>
<linearGradient id="paint3_linear_554_2054" x1="715.767" y1="768.482" x2="715.767" y2="720.45" gradientUnits="userSpaceOnUse">
<stop stop-color="#7382FB"/>
<stop offset="1" stop-color="#515CD4"/>
</linearGradient>
<linearGradient id="paint4_linear_554_2054" x1="960.109" y1="529.671" x2="845.556" y2="660.102" gradientUnits="userSpaceOnUse">
<stop stop-color="#7382FB"/>
<stop offset="1" stop-color="#515CD4"/>
</linearGradient>
<linearGradient id="paint5_linear_554_2054" x1="493.435" y1="777.741" x2="493.435" y2="1114.2" gradientUnits="userSpaceOnUse">
<stop stop-color="#878787"/>
<stop offset="1" stop-color="#424242"/>
</linearGradient>
<linearGradient id="paint6_linear_554_2054" x1="302.107" y1="737.576" x2="684.763" y2="737.576" gradientUnits="userSpaceOnUse">
<stop stop-color="white"/>
<stop offset="0.138" stop-color="#FCFCFC"/>
<stop offset="1" stop-color="#EBEBEB"/>
</linearGradient>
<linearGradient id="paint7_linear_554_2054" x1="560.504" y1="692.262" x2="596.145" y2="690.366" gradientUnits="userSpaceOnUse">
<stop stop-color="white"/>
<stop offset="1" stop-color="#EBEBEB"/>
</linearGradient>
<linearGradient id="paint8_linear_554_2054" x1="636.45" y1="698.739" x2="610.733" y2="690.275" gradientUnits="userSpaceOnUse">
<stop stop-color="white"/>
<stop offset="1" stop-color="#EBEBEB"/>
</linearGradient>
<linearGradient id="paint9_linear_554_2054" x1="668.984" y1="737.853" x2="556.915" y2="700.969" gradientUnits="userSpaceOnUse">
<stop stop-color="white"/>
<stop offset="1" stop-color="#EBEBEB"/>
</linearGradient>
</defs>
</svg>
