<svg width="32" height="32" viewBox="0 0 32 32" fill="none" xmlns="http://www.w3.org/2000/svg">
<path d="M12.0004 17.3334C11.1204 17.7734 10.387 18.4268 9.84035 19.2401C9.53368 19.7068 9.53368 20.2934 9.84035 20.7601C10.387 21.5734 11.1204 22.2268 12.0004 22.6668" stroke="#14A800" stroke-width="2" stroke-linecap="round" stroke-linejoin="round"/>
<path d="M20.2803 17.3334C21.1603 17.7734 21.8936 18.4268 22.4403 19.2401C22.7469 19.7068 22.7469 20.2934 22.4403 20.7601C21.8936 21.5734 21.1603 22.2268 20.2803 22.6668" stroke="#14A800" stroke-width="2" stroke-linecap="round" stroke-linejoin="round"/>
<path d="M12.0003 29.3335H20.0003C26.667 29.3335 29.3337 26.6668 29.3337 20.0001V12.0001C29.3337 5.33348 26.667 2.66681 20.0003 2.66681H12.0003C5.33366 2.66681 2.66699 5.33348 2.66699 12.0001V20.0001C2.66699 26.6668 5.33366 29.3335 12.0003 29.3335Z" stroke="#14A800" stroke-width="2" stroke-linecap="round" stroke-linejoin="round"/>
<path d="M2.97363 10.6801L28.6003 10.6668" stroke="#14A800" stroke-width="2" stroke-linecap="round" stroke-linejoin="round"/>
</svg>
