<svg width="32" height="32" viewBox="0 0 32 32" fill="none" xmlns="http://www.w3.org/2000/svg">
<path d="M17.3464 3.89332L25.213 7.38666C27.4797 8.38666 27.4797 10.04 25.213 11.04L17.3464 14.5333C16.453 14.9333 14.9864 14.9333 14.093 14.5333L6.22637 11.04C3.9597 10.04 3.9597 8.38666 6.22637 7.38666L14.093 3.89332C14.9864 3.49332 16.453 3.49332 17.3464 3.89332Z" stroke="#14A800" stroke-width="2" stroke-linecap="round" stroke-linejoin="round"/>
<path d="M4 14.6667C4 15.7867 4.84 17.08 5.86667 17.5334L14.92 21.56C15.6133 21.8667 16.4 21.8667 17.08 21.56L26.1333 17.5334C27.16 17.08 28 15.7867 28 14.6667" stroke="#14A800" stroke-width="2" stroke-linecap="round" stroke-linejoin="round"/>
<path d="M4 21.3333C4 22.5733 4.73333 23.6933 5.86667 24.2L14.92 28.2266C15.6133 28.5333 16.4 28.5333 17.08 28.2266L26.1333 24.2C27.2667 23.6933 28 22.5733 28 21.3333" stroke="#14A800" stroke-width="2" stroke-linecap="round" stroke-linejoin="round"/>
</svg>
