<svg width="32" height="32" viewBox="0 0 32 32" fill="none" xmlns="http://www.w3.org/2000/svg">
<path d="M9.01323 29.3335H22.9866C26.6666 29.3335 28.1332 27.0801 28.3066 24.3335L28.9999 13.3201C29.1866 10.4401 26.8932 8.00014 23.9999 8.00014C23.1866 8.00014 22.4399 7.53348 22.0666 6.81348L21.1066 4.88014C20.4932 3.66681 18.8932 2.66681 17.5332 2.66681H14.4799C13.1066 2.66681 11.5066 3.66681 10.8932 4.88014L9.93323 6.81348C9.5599 7.53348 8.81323 8.00014 7.9999 8.00014C5.10656 8.00014 2.81323 10.4401 2.9999 13.3201L3.69323 24.3335C3.85323 27.0801 5.33323 29.3335 9.01323 29.3335Z" stroke="#14A800" stroke-width="2" stroke-linecap="round" stroke-linejoin="round"/>
<path d="M14 10.6668H18" stroke="#14A800" stroke-width="2" stroke-linecap="round" stroke-linejoin="round"/>
<path d="M16.0003 24.0001C18.387 24.0001 20.3337 22.0534 20.3337 19.6668C20.3337 17.2801 18.387 15.3334 16.0003 15.3334C13.6137 15.3334 11.667 17.2801 11.667 19.6668C11.667 22.0534 13.6137 24.0001 16.0003 24.0001Z" stroke="#14A800" stroke-width="2" stroke-linecap="round" stroke-linejoin="round"/>
</svg>
