<svg width="32" height="32" viewBox="0 0 32 32" fill="none" xmlns="http://www.w3.org/2000/svg">
<path d="M29.3337 20V12C29.3337 5.33335 26.667 2.66669 20.0003 2.66669H12.0003C5.33366 2.66669 2.66699 5.33335 2.66699 12V20C2.66699 26.6667 5.33366 29.3334 12.0003 29.3334H20.0003C26.667 29.3334 29.3337 26.6667 29.3337 20Z" stroke="#14A800" stroke-width="2" stroke-linecap="round" stroke-linejoin="round"/>
<path d="M3.36035 9.47998H28.6404" stroke="#14A800" stroke-width="2" stroke-linecap="round" stroke-linejoin="round"/>
<path d="M11.3604 2.81329V9.29329" stroke="#14A800" stroke-width="2" stroke-linecap="round" stroke-linejoin="round"/>
<path d="M20.6396 2.81329V8.69329" stroke="#14A800" stroke-width="2" stroke-linecap="round" stroke-linejoin="round"/>
<path d="M13 19.2667V17.6667C13 15.6133 14.4533 14.7733 16.2267 15.8L17.6133 16.6L19 17.4C20.7733 18.4267 20.7733 20.1067 19 21.1333L17.6133 21.9333L16.2267 22.7333C14.4533 23.76 13 22.92 13 20.8667V19.2667V19.2667Z" stroke="#14A800" stroke-width="2" stroke-miterlimit="10" stroke-linecap="round" stroke-linejoin="round"/>
</svg>
