<svg width="40" height="40" viewBox="0 0 40 40" fill="none" xmlns="http://www.w3.org/2000/svg">
<circle cx="20" cy="20" r="20" fill="#0086FF"/>
<path d="M26.264 14.936C26.264 11.128 23 8.152 18.712 8.152C15.384 8.152 13.112 9.624 11.416 11.8L14.488 14.04C15.448 12.76 16.856 11.928 18.584 11.928C20.472 11.928 22.008 13.304 22.008 15.192C22.008 16.92 20.504 18.296 18.616 18.296H16.792L16.952 24.6H20.28L20.408 21.56C23.768 21.176 26.264 18.36 26.264 14.936ZM18.616 26.584C17.304 26.584 16.248 27.608 16.248 28.92C16.248 30.232 17.304 31.256 18.616 31.256C19.928 31.256 20.952 30.232 20.952 28.92C20.952 27.608 19.928 26.584 18.616 26.584Z" fill="white"/>
</svg>
