<svg width="126" height="105" viewBox="0 0 126 105" fill="none" xmlns="http://www.w3.org/2000/svg">
<path d="M120.75 13.125H98V4.92188C98 2.19434 95.6594 0 92.75 0H33.25C30.3406 0 28 2.19434 28 4.92188V13.125H5.25C2.34062 13.125 0 15.3193 0 18.0469V29.5312C0 36.8525 4.92188 44.3789 13.5406 50.1826C20.4313 54.8379 28.8094 57.791 37.6031 58.7344C44.4719 69.4189 52.5 73.8281 52.5 73.8281V88.5938H42C34.2781 88.5938 28 92.8389 28 100.078V102.539C28 103.893 29.1813 105 30.625 105H95.375C96.8187 105 98 103.893 98 102.539V100.078C98 92.8389 91.7219 88.5938 84 88.5938H73.5V73.8281C73.5 73.8281 81.5281 69.4189 88.3969 58.7344C97.2125 57.791 105.591 54.8379 112.459 50.1826C121.056 44.3789 126 36.8525 126 29.5312V18.0469C126 15.3193 123.659 13.125 120.75 13.125ZM21.7219 39.5391C16.3844 35.9297 14 31.9102 14 29.5312V26.25H28.0437C28.2625 32.9355 29.3125 38.8008 30.8438 43.9277C27.5406 42.8613 24.4563 41.3848 21.7219 39.5391V39.5391ZM112 29.5312C112 32.833 108.128 36.9346 104.278 39.5391C101.544 41.3848 98.4375 42.8613 95.1344 43.9277C96.6656 38.8008 97.7156 32.9355 97.9344 26.25H112V29.5312Z" fill="#0086FF"/>
</svg>
